<?xml version="1.0" standalone="no"?>
<!DOCTYPE svg PUBLIC "-//W3C//DTD SVG 1.1//EN" "http://www.w3.org/Graphics/SVG/1.1/DTD/svg11.dtd" >
<svg xmlns="http://www.w3.org/2000/svg">
<metadata>
This is a custom SVG webfont generated by Font Squirrel.
Copyright   : Copyright 2001 by Herman Miller Distribute freely
</metadata>
<defs>
<font id="webfontKblFnP1e" horiz-adv-x="987" >
<font-face units-per-em="2048" ascent="1638" descent="-410" />
<missing-glyph horiz-adv-x="614" />
<glyph unicode=" "  horiz-adv-x="614" />
<glyph unicode="&#x09;" horiz-adv-x="614" />
<glyph unicode="&#xa0;" horiz-adv-x="614" />
<glyph unicode="!" horiz-adv-x="462" d="M82 98q0 49 37 86q35 35 86 35q49 0 84 -35q37 -37 37 -86q0 -47 -37 -84t-84 -37q-49 0 -86 37t-37 84zM88 1464q0 20 47 49q43 25 70 25q23 0 65 -25q47 -29 47 -49q0 -213 -41 -520q-47 -354 -59 -518h-27q-12 164 -59 518q-43 321 -43 520z" />
<glyph unicode="&#x22;" horiz-adv-x="792" d="M88 1337q0 23 33 55.5t55 32.5q25 0 57.5 -32.5t32.5 -55.5q0 -101 -30 -258q-37 -180 -46 -256h-26q-6 66 -43 256q-33 168 -33 258zM483 1337q0 23 33 55.5t55.5 32.5t55.5 -32q35 -35 35 -56q0 -90 -33 -258q-37 -190 -43 -256h-27q-8 76 -45 256q-31 157 -31 258z " />
<glyph unicode="#" horiz-adv-x="1069" d="M-14 424l16 90h199l67 350h-196l16 88h199l90 465h90l-90 -465h330l92 465h88l-90 -465h202l-18 -88h-203l-67 -350h202l-16 -90h-205l-82 -424h-88l82 424h-332l-82 -424h-90l82 424h-196zM291 514h332l67 350h-332z" />
<glyph unicode="$" horiz-adv-x="1015" d="M96 354l37 15q35 -139 125 -224q94 -90 229 -106v616q-182 117 -256 195q-129 133 -129 280q0 135 129 220q106 70 256 82v196h62v-194q39 -4 104 -21q68 -18 105 -18q33 0 47 26h39l63 -422h-45q-43 168 -96 240q-78 109 -217 127v-526q199 -127 276 -201 q139 -139 140 -299q0 -174 -123 -272q-111 -88 -293 -84v-205h-62v209q-4 0 -21 3t-46 7t-62 10q-72 14 -129 15q-27 0 -45 -19h-30zM268 1153q0 -127 219 -272v489h-8q-96 0 -153.5 -59.5t-57.5 -157.5zM549 37q115 2 188 80q74 76 74 194q0 89 -92 178q-53 51 -170 127 v-579z" />
<glyph unicode="%" horiz-adv-x="1656" d="M109 1067q0 162 77.5 264.5t208.5 102.5q125 0 209 -103q82 -100 82 -256q0 -160 -82 -256t-211 -96q-115 0 -200 100q-84 99 -84 244zM217 1100q0 -123 49 -221q59 -115 152 -115q158 0 157 246q0 143 -38 250q-53 135 -158 135q-162 0 -162 -295zM340 33l971 1378 l96 -25l-991 -1386zM1016 317q0 168 78 267q80 102 211 102q123 0 206 -102q82 -100 82 -254q0 -164 -80 -258q-84 -98 -210 -99q-117 0 -203 103q-84 98 -84 241zM1124 350q0 -123 50 -221q57 -113 151 -113q158 0 158 246q0 152 -39 250q-52 135 -160 135 q-160 0 -160 -297z" />
<glyph unicode="&#x26;" horiz-adv-x="1583" d="M53 406q0 168 328 464q-117 160 -117 271q0 137 84 219t223 82q274 0 275 -232q0 -53 -109 -166q-33 -33 -155 -147l204 -231q125 -147 187 -248q221 319 221 375q0 66 -113 73l19 52h409l-18 -52q-108 -6 -166 -49q-51 -37 -102 -135l-95 -178q-57 -104 -104 -170 q74 -119 117 -154q66 -57 180 -57q141 0 174 149q8 -10 41 -24q-27 -147 -117 -211q-78 -57 -235 -57q-133 0 -281 202q-211 -217 -512 -217q-141 0 -246 154q-92 140 -92 287zM238 395q0 -129 92 -219q94 -90 221 -90q143 0 299 174q-135 205 -393 516q-219 -225 -219 -381 zM403 1171q0 -57 107 -188l125 107q82 80 82 127q0 80 -33 112q-35 35 -113 35q-70 0 -120 -64q-48 -63 -48 -129z" />
<glyph unicode="'" horiz-adv-x="397" d="M88 1337q0 23 33 55.5t55 32.5q25 0 57.5 -32.5t32.5 -55.5q0 -101 -30 -258q-37 -180 -46 -256h-26q-6 66 -43 256q-33 168 -33 258z" />
<glyph unicode="(" horiz-adv-x="733" d="M80 475q0 295 137 533q145 252 395 378l25 -47q-385 -240 -385 -864q0 -623 385 -862l-25 -49q-250 127 -395 379q-137 237 -137 532z" />
<glyph unicode=")" horiz-adv-x="724" d="M55 -387q385 240 385 862q0 625 -385 864l25 47q250 -127 395 -378q137 -238 137 -533q0 -291 -137 -532q-145 -252 -395 -379z" />
<glyph unicode="*" horiz-adv-x="944" d="M104 702q22 89 123 148q39 23 119 35q78 12 117 30q-37 16 -117 29q-76 12 -115 35q-102 59 -122 145q18 6 43 6q86 0 143 -34q41 -29 82 -80q51 -63 92 -90q-4 41 -31 116q-29 76 -28 115q0 115 65 180q68 -68 68 -180q0 -35 -27 -115q-31 -88 -33 -116q47 37 92 92 q45 57 78 80q53 33 144 32q23 0 41 -6q-20 -86 -123 -145q-39 -23 -111 -35q-90 -16 -115 -29q25 -14 117 -30q84 -16 115 -35q101 -58 123 -148q-18 -6 -43 -6q-88 0 -146 35q-33 23 -80 82q-53 68 -92 92q3 -37 31 -117q29 -76 29 -116q0 -113 -68 -180q-66 66 -65 180 q0 41 28 116q28 77 31 117q-37 -23 -94 -90q-49 -57 -84 -82q-55 -37 -146 -37q-23 0 -41 6z" />
<glyph unicode="+" horiz-adv-x="960" d="M70 668v94h368v366h94v-366h367v-94h-367v-369h-94v369h-368z" />
<glyph unicode="," horiz-adv-x="548" d="M78 92q0 -45 22 -74q29 -35 68 -34q4 0 32.5 4t32.5 4q41 0 41 -58q0 -143 -174 -235q12 -37 21 -37q12 0 69 37q51 35 64 49q63 74 86 117q35 63 35 137q0 80 -41 137q-43 63 -121 64q-51 0 -92 -29q-43 -31 -43 -82z" />
<glyph unicode="-" horiz-adv-x="782" d="M68 573v125h645v-125h-645z" />
<glyph unicode="." horiz-adv-x="497" d="M94 96q0 49 33 82q35 35 82 35q45 0 80 -35t35 -82q0 -45 -35 -80q-33 -33 -80 -32q-49 0 -82 32.5t-33 79.5z" />
<glyph unicode="/" horiz-adv-x="735" d="M10 4l631 1415l82 -18l-625 -1415z" />
<glyph unicode="0" horiz-adv-x="1128" d="M82 723q0 246 102 459q129 270 344 270q227 0 351 -266q98 -209 98 -463q0 -248 -103 -461q-129 -270 -346 -270q-225 0 -350 266q-96 205 -96 465zM227 766q0 -719 301 -719t301 631q0 719 -301 719t-301 -631z" />
<glyph unicode="1" horiz-adv-x="860" d="M119 1194q205 104 344 244h59v-1231q0 -102 53 -139q43 -31 152 -31v-37h-582v37q211 0 211 170v1057l-106 -66q-59 -33 -113 -47z" />
<glyph unicode="2" horiz-adv-x="1087" d="M57 1071q55 151 185 252q137 106 288 107q141 0 238 -87q100 -88 100 -229q0 -444 -604 -981h547q57 0 107 86q48 84 45 84q8 0 22 -8q4 -2 9 -4t8.5 -4t5.5 -2q0 -20 -88 -285h-838l-19 59q668 539 668 979q0 258 -233 258q-264 0 -398 -243z" />
<glyph unicode="3" horiz-adv-x="923" d="M74 1130q101 154 172 216q106 86 254 86q127 0 219 -80q94 -82 94 -209q0 -106 -65 -178q-43 -49 -160 -111q137 -10 217 -129q72 -109 72 -252q0 -270 -148 -387q-129 -102 -412 -102q-86 0 -147 26q-84 37 -84 111q0 33 22.5 55.5t57.5 22.5q68 0 145.5 -68t151.5 -68 q268 0 268 377q0 109 -49 195q-61 106 -158 106q-104 0 -213 -57l-18 51q90 27 209 135q131 119 131 197q0 92 -72 160q-70 68 -162 67q-109 0 -295 -176z" />
<glyph unicode="4" horiz-adv-x="976" d="M23 412v61l673 969h49v-905h234v-125h-234v-412h-137v412h-585zM150 537h458v671z" />
<glyph unicode="5" horiz-adv-x="962" d="M53 129q0 35 24.5 59.5t57.5 24.5q16 0 58 -43q59 -66 83 -84q59 -45 127 -45q121 0 230 160q94 143 94 274q0 141 -104 254q-109 121 -244 121q-57 0 -133 -47q-28 -18 -129 -92l114 706h496q45 0 57 56l39 -13l-63 -184h-471l-64 -389q94 70 254 69q186 0 299 -149 q104 -139 105 -330q0 -215 -162 -366q-154 -145 -375 -146q-96 0 -182 35q-111 47 -111 129z" />
<glyph unicode="6" d="M23 606q0 324 229 553q188 193 528 307l19 -45q-504 -178 -596 -671q109 88 151 110q82 47 181 47q170 0 301 -143q129 -141 129 -311q0 -188 -139.5 -332t-325.5 -144q-229 0 -363 207q-114 180 -114 422zM190 614q0 -592 324 -591q170 0 236 147q43 100 43 297 q0 139 -66 252q-76 131 -209 131q-84 0 -174 -53q-39 -23 -149 -109q-5 -45 -5 -74z" />
<glyph unicode="7" horiz-adv-x="958" d="M57 1106l82 311h824v-67l-504 -1350h-115l479 1280h-528q-61 0 -129 -68q-66 -66 -78 -125z" />
<glyph unicode="8" horiz-adv-x="958" d="M66 322q-2 131 102 243q72 72 207 158q-170 139 -174 143q-96 102 -97 217q0 154 95 250q96 98 256 109q162 8 278 -74q117 -83 117 -215q0 -102 -88 -215q-74 -96 -182 -170q172 -129 231 -197q104 -119 100 -256q-4 -156 -143 -249q-133 -88 -313 -89q-381 1 -389 345z M223 305q0 -125 64 -196q66 -74 180 -74q123 0 217 88q90 86 82 192q-8 82 -133 195l-207 166q-178 -131 -201 -324q-2 -16 -2 -47zM238 1128q0 -94 98 -180q8 -8 176 -129q184 154 184 326q0 100 -65.5 165.5t-169.5 65.5q-106 0 -166 -71q-57 -66 -57 -177z" />
<glyph unicode="9" horiz-adv-x="1144" d="M63 961q0 186 140 331q137 143 325 144q233 0 365 -207q113 -176 113 -422q0 -322 -230 -551q-190 -193 -526 -307l-21 43q504 178 596 672q-115 -90 -149 -111q-88 -47 -180 -47q-170 0 -301.5 143.5t-131.5 311.5zM236 946q0 -139 65 -252q76 -131 209 -131 q84 0 174 53q18 10 150 109q4 45 4 74q0 594 -324 594q-168 0 -233 -150q-45 -107 -45 -297z" />
<glyph unicode=":" horiz-adv-x="473" d="M94 96q0 49 33 82q35 35 82 35q45 0 80 -35t35 -82q0 -45 -35 -80q-33 -33 -80 -32q-49 0 -82 32.5t-33 79.5zM94 803q0 47 33 80q35 35 82 35q45 0 80 -35t35 -80q0 -47 -35 -82q-33 -33 -80 -33q-49 0 -82 33t-33 82z" />
<glyph unicode=";" horiz-adv-x="507" d="M78 92q0 51 43 82q41 29 92 29q78 0 121 -64q41 -57 41 -137q0 -115 -121 -254q-20 -20 -64 -49q-53 -37 -69 -37q-8 0 -21 37q174 92 174 235q0 57 -41 58q-4 0 -32.5 -4t-32.5 -4q-39 0 -68 34q-22 29 -22 74zM94 803q0 47 33 80q35 35 82 35q45 0 80 -35t35 -80 q0 -47 -35 -82q-33 -33 -80 -33q-49 0 -82 33t-33 82z" />
<glyph unicode="&#x3c;" horiz-adv-x="894" d="M45 705l760 638l63 -73l-671 -565l671 -566l-63 -76z" />
<glyph unicode="=" horiz-adv-x="1042" d="M106 477v96h832v-96h-832zM106 854v94h832v-94h-832z" />
<glyph unicode="&#x3e;" horiz-adv-x="946" d="M78 139l672 566l-672 565l61 73l760 -638l-760 -642z" />
<glyph unicode="?" horiz-adv-x="782" d="M80 1194q0 102 115 176q109 68 213 68q135 0 223 -82t88 -217q0 -133 -88 -230q-12 -15 -166 -141q-92 -78 -103 -154q-6 -49 -6 -88q0 -106 52 -153l-52 -19q-96 139 -96 260q0 95 68 172q31 35 141 121q72 59 92 109q18 43 19 135q0 88 -48 152q-49 63 -139 63 q-53 0 -104 -53q-52 -52 -62 -105q-18 -90 -88 -90q-59 0 -59 76zM248 98q0 51 34.5 86t86.5 35q49 0 84 -35q37 -37 36 -86q0 -47 -36.5 -84t-83.5 -37q-49 0 -86 37q-35 35 -35 84z" />
<glyph unicode="@" horiz-adv-x="1470" d="M-20 700q0 303 188 527q195 231 500 231q295 0 465 -149q182 -158 182 -447q0 -211 -115 -356q-125 -156 -330 -156q-82 0 -106 82q-111 -80 -201 -80q-127 0 -176 49q-51 51 -51 174q0 156 110 310q121 168 269 168q80 0 139 -41l94 55l-102 -500q-10 -51 -10 -94 q0 -47 73 -47q154 0 246 147q78 127 78 289q0 233 -160 381q-154 147 -389 148q-291 0 -461 -211q-156 -193 -155 -490q0 -276 178 -461q180 -186 454 -186q475 0 652 416l55 -43q-125 -236 -283 -334q-162 -100 -424 -100q-324 0 -522 198t-198 520zM430 639 q0 -217 143 -217q55 0 179 72l77 376q-43 125 -141 125q-104 0 -184 -129q-74 -118 -74 -227z" />
<glyph unicode="A" horiz-adv-x="1558" d="M18 0v45h68q86 0 143 150l443 1167q4 12 4 18q0 20 -10 29l6 8h121l475 -1257q27 -76 69 -99q27 -16 117 -16v-45h-586v45h146q63 0 63 70q0 47 -35 141l-104 279q-16 41 -43 40h-393q-31 0 -45 -36l-88 -217q-70 -180 -70 -207q0 -72 80 -72l2 2h131v-45h-494zM510 678 q0 -12 10 -12h332q20 0 20 20q0 8 -1 17l-1 10l-157 420q-2 12 -17 18q-8 0 -14 -18q-172 -449 -172 -455z" />
<glyph unicode="B" horiz-adv-x="1320" d="M-12 0l10 37q139 4 176 20q80 35 80 154v1018q0 137 -236 137v45q249 18 621 19q184 0 340 -70q188 -88 188 -248q0 -266 -305 -313q199 -45 281 -129q96 -96 96 -289q0 -205 -180 -303q-145 -78 -367 -78h-704zM426 201q0 -156 236 -156q162 0 268 92q115 96 114 252 q0 172 -79 270q-88 106 -256 107h-283v-565zM426 809h186q176 0 252 39q115 59 115 219q0 307 -305 307h-248v-565z" />
<glyph unicode="C" horiz-adv-x="1363" d="M39 653q0 317 207 543q213 227 530 227q211 0 375 -75q53 -25 70 -25q20 0 28 14l31 -2l14 -301h-37q-43 160 -180 252q-127 88 -301 88q-250 0 -407 -207q-141 -188 -142 -446q0 -272 154 -469q164 -213 430 -213q145 0 283 94q131 92 190 234l41 -13 q-66 -193 -190 -315q-307 -49 -394 -49q-291 0 -493 184q-209 190 -209 479z" />
<glyph unicode="D" horiz-adv-x="1562" d="M18 0v43q102 0 146 31q49 37 49 135v1055q0 115 -133 114q-14 0 -51 -4v39q178 20 434 21q406 0 647 -134q309 -174 309 -546q0 -326 -211 -541q-209 -213 -536 -213h-654zM387 186q0 -147 82 -147h203q268 0 407 213q119 180 119 465q0 670 -698 669q-31 0 -113 -4 v-1196z" />
<glyph unicode="E" horiz-adv-x="1261" d="M-6 0v37q238 2 237 135v1079q0 76 -41 105q-45 29 -174 28v35h1057l12 -307h-36q-25 231 -150 231h-485v-563h387q92 0 119 174h32v-432h-32q-35 188 -119 189h-387v-521q0 -111 84 -110h424q147 0 196 260l41 -2l-41 -338h-1124z" />
<glyph unicode="F" horiz-adv-x="1052" d="M12 0v45q166 0 166 145v1080q0 106 -166 106v43h981l25 -284h-37q0 199 -174 198h-453v-536h373q61 0 96 47q31 40 31 104h27v-391h-27q0 166 -127 166h-373v-545q0 -133 183 -133v-45h-525z" />
<glyph unicode="G" horiz-adv-x="1390" d="M12 653q0 338 197 555q201 225 536 226q180 0 320 -54q63 -23 100 -22q35 0 54 16h18l29 -368h-37q-27 178 -154 280q-123 98 -307 98q-276 0 -430 -221q-135 -193 -135 -481q0 -260 139 -442q154 -201 408 -201q229 0 340 92v363q0 139 -185 139v41h490v-41 q-61 0 -101 -33q-43 -34 -43 -92v-389q-258 -133 -549 -133q-299 0 -489 184q-201 190 -201 483z" />
<glyph unicode="H" horiz-adv-x="1622" d="M39 0v37q213 0 213 170v1007q0 104 -53 142q-41 29 -154 28v35h578v-35q-205 0 -205 -170v-452h698v452q0 104 -51 142q-41 29 -154 28v35h578v-35q-207 0 -207 -170v-1007q0 -102 53 -139q43 -31 154 -31v-37h-584v37q211 0 211 170v461h-698v-461q0 -102 51 -139 q43 -31 154 -31v-37h-584z" />
<glyph unicode="I" horiz-adv-x="757" d="M39 0v37q213 0 213 170v1007q0 104 -53 142q-41 29 -154 28v35h578v-35q-205 0 -205 -170v-1007q0 -106 53 -141q41 -29 152 -29v-37h-584z" />
<glyph unicode="J" horiz-adv-x="798" d="M-102 -391q0 33 22 61q20 27 60 27q76 0 108.5 -51.5t124.5 -51.5t135 136q29 96 29 209v1275q0 104 -53 142q-41 29 -154 28v35h545v-35q-96 0 -133 -36q-39 -39 -39 -134v-978q0 -276 -84 -472q-114 -270 -350 -270q-211 0 -211 115z" />
<glyph unicode="K" horiz-adv-x="1574" d="M39 0v37h7q206 0 206 170v1007q0 104 -53 142q-43 29 -154 28v35h578v-35q-4 0 -7 1q-198 0 -198 -171v-509q137 63 272 219l162 182q115 135 115 192q0 70 -164 84l6 37h520v-51h-47.5t-46.5 -2q-47 -6 -88 -35q-65 -43 -166 -184q-125 -180 -154 -211l-200 -207 q141 -82 346 -313l166 -199q135 -154 178 -166q55 -16 121 -16q33 0 67 4v-37h-647l6 37q29 -6 61.5 -6t59.5 10q39 16 39 39q0 27 -98 131l-129 127q-190 201 -379 297v-430q0 -104 53 -139q45 -31 152 -31v-37h-584z" />
<glyph unicode="L" horiz-adv-x="1214" d="M-6 0v37q238 2 237 135v1077q0 90 -65 119q-35 14 -150 14v35h635v-31h-14q-82 0 -141 -28q-82 -39 -82 -111v-1057q0 -111 84 -110h424q96 0 161 90q51 70 74 180l41 -4l-80 -346h-1124z" />
<glyph unicode="M" horiz-adv-x="1935" d="M29 33q156 0 164 141l63 1083q0 63 -57 97q-47 25 -113 24v47h340l504 -1173l504 1173h315v-47q-4 0 -14.5 1t-20.5 1h-37q-100 0 -94 -77l82 -1197q4 -33 80 -53q55 -16 104 -16v-37h-534v33q47 0 117 47q70 49 67 96l-78 1000l-503 -1176h-52l-526 1212l-66 -1069 q0 -47 78 -82q68 -29 121 -28l2 -33h-444z" />
<glyph unicode="N" horiz-adv-x="1576" d="M23 41q164 0 163 84v1137q0 53 -59 81q-46 25 -104 31l6 43h317l952 -1116v952q0 61 -61 93q-46 23 -104 22h-13v49h439l4 -10q0 -10 -4 -39q-106 -12 -119 -16q-53 -23 -54 -99v-1253h-43l-1075 1204v-1036q0 -129 172 -129q31 0 45 2v-41h-450z" />
<glyph unicode="O" horiz-adv-x="1568" d="M8 670q0 328 199 544q203 221 528 222q322 0 527 -179q217 -188 217 -501q0 -332 -199 -545q-207 -223 -532 -223q-319 0 -525 180q-215 189 -215 502zM221 731q0 -268 133 -463q150 -221 408 -221q260 0 395 193q119 172 119 442q0 268 -135 469q-154 227 -414 227 q-258 0 -391 -200q-115 -175 -115 -447z" />
<glyph unicode="P" horiz-adv-x="1185" d="M35 -4l6 43h10q102 0 142 39q41 41 40 143v1028q0 133 -192 133v37q139 18 408 19q303 0 444 -58q225 -88 225 -342q0 -195 -170 -325q-158 -121 -356 -121q-68 0 -182 31v-416q0 -92 69 -137q58 -38 137 -38q10 0 21 1l6 -29l-2 -8h-606zM410 676q68 -18 200 -19 q160 0 236 115q63 96 63 266q0 145 -88 246q-92 106 -235 107q-39 0 -88 -9l-88 -12v-694z" />
<glyph unicode="Q" horiz-adv-x="1652" d="M10 662q0 328 207 544q209 219 539 219q322 0 534 -176q225 -188 226 -504q0 -272 -148 -475q-154 -209 -414 -270q57 -27 121 -92l107 -113q164 -154 364 -176l-18 -31q-205 6 -369 88q-70 35 -266 168q-168 115 -299 156q-276 90 -416 229q-168 169 -168 433zM221 748 q0 -266 144 -476q162 -236 417 -235q262 0 402 188q123 166 123 443q0 270 -142 473q-160 229 -420 229q-262 0 -401 -184q-123 -162 -123 -438z" />
<glyph unicode="R" horiz-adv-x="1345" d="M35 -4l6 43h10q102 0 142 39q41 41 40 143v1028q0 133 -184 133h-8v37q139 18 408 19q303 0 444 -58q225 -88 225 -342q0 -129 -78 -231q-68 -94 -192 -156l303 -471q84 -127 164 -127l8 -49l-12 -2h-8q-88 0 -209 63.5t-172 147.5l-236 387q-43 -8 -94 -8q-68 0 -182 31 v-416q0 -92 69 -137q58 -38 137 -38q10 0 21 1l6 -29l-2 -8h-606zM410 676q68 -18 200 -19q160 0 236 117q63 96 63 264q0 145 -88 246q-92 106 -235 107q-39 0 -88 -9q-80 -10 -88 -12v-694z" />
<glyph unicode="S" horiz-adv-x="1013" d="M96 354l37 15q37 -152 145.5 -242t264.5 -90q115 0 192 78q76 76 76 196q0 119 -184 250l-340 240q-184 154 -185 329q0 145 152 232q127 72 283 72q39 0 112 -19q82 -20 109 -20q29 0 47 26h39l63 -422h-45q-45 186 -119 269q-90 102 -264 102q-96 0 -153.5 -59.5 t-57.5 -157.5q0 -121 181 -246l335 -229q180 -154 181 -338q0 -174 -121 -270q-111 -86 -289 -86q-70 0 -162 18q-102 20 -164 21q-27 0 -45 -19h-30z" />
<glyph unicode="T" horiz-adv-x="1339" d="M8 1073l33 389h18q39 -45 97 -45h956q61 0 115 45h12l49 -375l-43 -6q-20 113 -35 160q-37 109 -98 109h-381v-1162q0 -88 66 -118q43 -18 141 -19v-51h-602v39h8q205 0 205 149v1162h-377q-98 0 -131 -277h-33z" />
<glyph unicode="U" horiz-adv-x="1466" d="M-25 1368l15 49h487l-6 -49q-174 -14 -174 -113v-778q0 -150 170 -276q156 -117 311 -117q174 0 289 94q127 104 127 268v736q0 186 -165 186h-5l-12 49l461 -2l-3 -49l-2 -2q-115 -18 -131 -29q-51 -27 -51 -116v-791q0 -211 -182 -336q-160 -109 -381 -108 q-249 0 -412 141q-172 147 -172 391v754q0 98 -154 98h-10z" />
<glyph unicode="V" horiz-adv-x="1548" d="M-29 1417h600l-24 -47q-76 -8 -121 -16q-88 -20 -88 -64q0 -29 41 -125l383 -925l352 870q51 123 51 168q0 86 -190 102l-14 37h503l-18 -35q-104 -6 -141 -47q-16 -20 -64 -131l-491 -1233h-76l-504 1239q-33 86 -70 115q-37 33 -123 51z" />
<glyph unicode="W" horiz-adv-x="1886" d="M-35 1417h1430l-11 -28q-115 0 -163 -127l-168 -445l198 -530q12 -33 26.5 -33t27.5 27l378 1019q8 25 9 31q0 31 -39 41q-25 4 -76 4q-23 0 -47 2q-20 2 -45 2l-8 37h481l-21 -35q-43 0 -94 -34.5t-65 -75.5l-480 -1272h-98l-227 608l-236 -608h-94l-479 1278 q-33 86 -189 86zM315 1303q0 -8 9 -33l370 -996q14 -41 27 -41q10 0 24 39l160 426q10 27 10 45q0 25 -18 74l-186 488q-18 51 -101 65q-31 6 -131 6q-164 1 -164 -73zM860 1331q0 -6 4 -22l111 -287q18 -47 22 -47q10 0 27 41l106 282q4 12 5 23q0 61 -54 61h-161 q-60 0 -60 -51z" />
<glyph unicode="X" horiz-adv-x="1716" d="M27 0v45q37 2 70.5 4t48.5 3l16 1q61 12 108 74l453 596l-395 520q-49 63 -125 94q-27 10 -152 39l6 41h623l-4 -10q0 -6 4 -31q-18 -2 -54 -5t-55 -5q-84 -12 -84 -39q0 -22 154 -221l188 -242l179 230q147 193 147 219q0 51 -156 76q14 20 13 28h477l-6 -35 q-174 -43 -234 -118l-360 -478l479 -634q76 -100 264 -101l2 -2l-8 -49h-584v51q129 23 129 70q0 12 -389 524q-410 -539 -409 -549q0 -49 186 -57v-39h-532z" />
<glyph unicode="Y" horiz-adv-x="1294" d="M-20 1417h546l-8 -49q-190 -15 -190 -49q0 -12 389 -664l366 656q0 53 -174 63l-26 43h460l-4 -41q-90 -4 -116.5 -20.5t-69.5 -91.5l-387 -670v-387q0 -104 53 -141q41 -29 152 -29v-37h-584v37q211 0 211 170v340l-424 721q-33 57 -72 80q-31 16 -102 24z" />
<glyph unicode="Z" horiz-adv-x="1187" d="M16 57l820 1272h-609q-55 0 -92 -110q-10 -39 -21.5 -78t-21.5 -80l-43 4l80 391l35 12q33 -51 74 -51h829q-4 -16 -14 -39l-846 -1284h743q45 0 107 117l73 162h31l-137 -373h-1006z" />
<glyph unicode="[" horiz-adv-x="608" d="M111 -483v1902h464v-92h-317v-1718h317v-92h-464z" />
<glyph unicode="\" horiz-adv-x="774" d="M10 1401l82 18l631 -1415l-88 -18z" />
<glyph unicode="]" horiz-adv-x="702" d="M63 -391h318v1718h-318v92h463v-1902h-463v92z" />
<glyph unicode="^" horiz-adv-x="1058" d="M53 676l453 731l452 -731l-53 -62l-399 648l-397 -648z" />
<glyph unicode="_" horiz-adv-x="983" d="M0 -381h973v-100h-973v100z" />
<glyph unicode="`" horiz-adv-x="514" d="M109 1382l174 60l153 -402l-24 -28z" />
<glyph unicode="a" horiz-adv-x="903" d="M84 184q0 104 84 172q51 41 174 93l225 92v149q0 78 -55 133q-53 53 -137 54q-127 0 -127 -136q0 -2 4 -22.5t4 -24.5q0 -39 -55 -65q-53 -27 -90 -27q-18 0 -19 29q0 131 113 219q102 78 239 78q139 0 203 -51q72 -55 72 -191v-516q0 -84 57 -84q39 0 133 55l2 -41 q-90 -66 -100 -75q-63 -39 -121 -39q-88 0 -119 131l-133 -97q-66 -37 -151 -36q-84 0 -143.5 59t-59.5 141zM227 201q0 -57 37 -90q39 -35 94 -35q61 0 115 33q29 18 96 73l-2 301l-202 -90q-138 -61 -138 -192z" />
<glyph unicode="b" horiz-adv-x="1103" d="M-119 1382q168 18 328 93v-689q139 82 170 99q100 47 186 47q172 0 273 -148q86 -129 86 -307q0 -227 -154 -362q-150 -127 -379 -127q-154 0 -328 45v1224q0 47 -51 72q-45 21 -97 21h-12.5t-8.5 14q-3 8 -13 18zM209 201q0 -65 104 -111q90 -39 162 -39q139 0 219 125 q70 111 70 254t-72 264q-83 141 -215 142q-51 0 -143 -35q-94 -37 -125 -76v-524z" />
<glyph unicode="c" horiz-adv-x="911" d="M10 430q0 217 152 363q150 141 370 141q61 0 154 -41q102 -47 102 -98q0 -94 -90 -95q-55 0 -73 45q-23 57 -31 84q-33 45 -127 45q-150 0 -236 -137q-72 -119 -71 -276q0 -135 94 -250q102 -123 229 -123q188 0 287 168q41 0 41 -10q-123 -264 -393 -264 q-172 0 -293 139q-115 133 -115 309z" />
<glyph unicode="d" horiz-adv-x="1058" d="M14 438q0 215 125 346q147 154 340 154q160 0 252 -53v395q0 78 -110 78q-23 -2 -66 -4v35q158 23 313 104v-1300q0 -25 21 -46q23 -23 43 -22q8 0 57 4t58 4v-35l-142 -49q-74 -29 -133 -63q-9 -6 -18 -6q-18 0 -25 38q-3 26 -3 48q0 13 1 26l4 55l-168 -104 q-94 -53 -192 -53q-160 0 -265 149q-92 135 -92 299zM168 446q0 -129 80 -239q86 -121 209 -121q86 0 274 100v514q-68 98 -127 134q-68 39 -180 38q-144 0 -209 -153q-47 -113 -47 -273z" />
<glyph unicode="e" horiz-adv-x="882" d="M14 451q0 199 115 337q123 147 320 148q154 0 253 -96q98 -95 99 -252h-647q-4 -29 -4 -86q0 -152 90 -275q102 -139 243 -139q188 0 287 168h8q23 0 33 -10q-123 -264 -393 -264q-170 0 -291 151q-113 144 -113 318zM176 643h471q-4 102 -72 168q-66 63 -169 63 q-86 0 -150 -73q-57 -64 -80 -158z" />
<glyph unicode="f" horiz-adv-x="770" d="M23 848v39q123 0 145 22h31v31q0 158 34 231q29 55 144 166q102 98 295 99q102 0 229 -117l-100 -94q-31 141 -203 141q-96 0 -174 -59q-84 -66 -84 -160v-238h233v-75h-233v-662q0 -129 139 -129h33q8 0 18.5 1t12.5 1v-45h-488l-4 29q82 25 96 32q51 29 52 82v691 q-5 -1 -13 -1q-44 0 -163 15z" />
<glyph unicode="g" horiz-adv-x="1050" d="M10 -313q0 152 217 307q-2 6 -59 22q-70 18 -98 39q-51 33 -52 95q0 63 37 94q16 14 86 41q53 18 88 49q-199 63 -198 270q0 143 110 242q106 94 252 94q172 0 275 -92l303 20q0 -35 6 -114l-242 24q55 -82 56 -186q0 -135 -129 -215q-115 -70 -254 -70q-70 0 -136 15 q-135 -72 -135 -127q0 -63 215 -78q305 -20 400 -47q215 -61 215 -238q0 -154 -217 -254q-180 -86 -355 -86q-123 0 -237 37q-148 54 -148 158zM133 -274q0 -150 346 -150q102 0 221 66q131 74 131 170q0 106 -137 145q-74 23 -221 29q-63 6 -199 12q-141 -110 -141 -272z M180 592q0 -231 232 -232q227 0 227 236q0 111 -68 197q-74 94 -180 94q-104 0 -164 -99q-47 -81 -47 -196z" />
<glyph unicode="h" horiz-adv-x="1146" d="M-35 1337v15q0 4 1 9t1 7q0 14 29 25l117 32q61 23 112 58h43v-733q244 184 410 184q113 0 170 -107q47 -88 47 -209v-487q0 -82 158 -82l6 -49h-453v45q139 0 139 135v422q0 88 -38 152q-47 80 -127 80q-104 0 -312 -144v-538q0 -98 154 -107l20 -45h-458l-2 8l4 31 q82 0 112 41q27 37 27 121v1067q0 37 -39 59q-35 20 -70 21z" />
<glyph unicode="i" horiz-adv-x="548" d="M23 856q190 53 284 113l37 -27v-790q0 -98 154 -107l4 -45h-459l-4 8l6 31q72 0 100 20q37 25 37 97v596q0 74 -71 73q-23 0 -64 -10zM152 1280q0 45 28.5 73.5t73.5 28.5t73.5 -28.5t28.5 -73.5t-28 -74q-31 -31 -74 -30q-43 0 -74 30q-28 29 -28 74z" />
<glyph unicode="j" horiz-adv-x="741" d="M-162 -387q0 25 27 53q29 33 51.5 33t106.5 -61q86 -63 127 -64q74 0 114 59q37 52 37 129v990q0 74 -72 73q-20 0 -61 -10l-27 41q190 53 285 113l39 -27v-1044q0 -160 -131 -299q-104 -111 -260 -111q-82 0 -146 25q-90 34 -90 100zM270 1280q0 43 31 74q29 29 74 28 q43 0 71 -28q31 -31 31 -74t-30.5 -73.5t-71.5 -30.5q-43 0 -74 30.5t-31 73.5z" />
<glyph unicode="k" horiz-adv-x="1144" d="M-16 1337v17q0 4 1 8t1 6q0 14 28 25q57 20 117 39q70 25 113 51h43v-905l215 167q78 61 78 93q0 41 -113 41l8 39h424l2 -46q-49 0 -121 -18q-84 -25 -110 -45l-262 -215l432 -438q100 -100 225 -107l-4 -49h-475l4 49q104 18 104 45q0 25 -39 66l-368 397v-405 q0 -98 153 -107l-6 -45h-432l-4 8l6 31q63 0 102 51q35 43 35 111v1067q0 39 -37 61q-31 18 -71 19z" />
<glyph unicode="l" horiz-adv-x="534" d="M33 1337q0 2 1 7.5t1 9.5v14q0 14 28 25q84 27 232 90h43v-1331q0 -98 154 -107l-7 -45h-432l-4 8l6 31q66 0 103 51q35 47 35 111v1067q0 33 -39 59q-29 20 -70 21z" />
<glyph unicode="m" horiz-adv-x="1708" d="M-8 831v25q6 10 24 16q104 37 238 97l35 -27v-180q287 186 399 186q66 0 125 -61q49 -53 72 -125q287 186 397 186q108 0 172 -98q55 -86 55 -199v-520q0 -82 154 -82l6 -49h-442v45q137 0 137 135v455q0 84 -41 149q-49 74 -129 74q-127 0 -297 -125v-602q0 -82 162 -82 l4 -49h-442v45q135 0 135 135v455q0 84 -35 147q-45 76 -123 76q-125 0 -309 -135v-571q0 -96 151 -107l-6 -45h-424l-4 8l6 31q63 0 101 51q35 47 34 111v551q0 35 -61 57q-20 6 -94 22z" />
<glyph unicode="n" horiz-adv-x="1118" d="M4 831v25q51 6 143 47q90 39 123 66l37 -27v-180q293 186 408 186q106 0 168 -98q51 -82 51 -199v-520q0 -82 158 -82l6 -49h-453v45q139 0 139 135v455q0 88 -36 149q-43 74 -125 74q-127 0 -316 -135v-571q0 -98 154 -107l-6 -45h-432l-5 8l7 31q63 0 102 51 q37 46 37 111v551q0 37 -64 57q-20 6 -96 22z" />
<glyph unicode="o" horiz-adv-x="1007" d="M10 442q0 213 127 351q125 135 340 135q207 0 338 -133q133 -137 133 -338q0 -209 -131 -338q-135 -131 -342 -131q-186 0 -325.5 133t-139.5 321zM188 485q0 -162 80 -290q92 -152 244 -152q256 0 256 326q0 197 -61 329q-83 178 -258 179q-156 0 -218 -125 q-43 -89 -43 -267z" />
<glyph unicode="p" horiz-adv-x="1087" d="M-12 -455l8 15q168 6 168 98v1010q0 84 -29 108.5t-112 30.5l-11 49q57 8 138 49q80 39 122 76l35 -10v-193q213 156 367 156q145 0 244 -137q86 -126 86 -277q0 -200 -148 -362q-152 -170 -346 -170q-106 0 -203 57v-326q0 -141 213 -155l-2 -49h-518zM307 195 q125 -125 285 -125q49 0 113 45q49 37 88 88q72 106 71 258q0 144 -73 258q-86 129 -223.5 129t-260.5 -117v-536z" />
<glyph unicode="q" horiz-adv-x="1105" d="M12 414q0 227 129 368q141 154 326 154q121 0 305 -80q31 31 55 80h47v-1272q0 -100 156 -100l-4 -49h-526l4 49q123 0 147 8q49 20 82 111v477q-129 -102 -164 -125q-92 -55 -198 -55q-154 0 -260 143q-99 131 -99 291zM160 475q0 -147 82 -266q92 -135 231 -135 q70 0 260 145v447q0 10 -20 51q-82 170 -254 170q-125 0 -217 -101q-82 -92 -82 -311z" />
<glyph unicode="r" horiz-adv-x="759" d="M16 819v37q86 8 248 102l39 -8v-235q119 223 215 223q51 0 195 -45q-2 -51 -64 -154q-121 63 -170 64q-61 0 -106 -58l-70 -106v-496q0 -109 135 -108q4 0 16.5 1t20.5 1h35l4 -37h-496v29q141 4 142 114v586q-1 59 -144 90z" />
<glyph unicode="s" horiz-adv-x="839" d="M94 254l23 4q88 -215 256 -215q195 0 194 174q0 102 -121 158l-225 96q-121 74 -121 217q0 102 103 174q88 63 196 64q166 0 250 -49l13 -226l-23 -4q-70 145 -84 162q-55 68 -164 68q-68 0 -121 -43q-57 -43 -57 -109q0 -82 127 -141q230 -108 233 -111 q127 -84 127 -223q0 -106 -96 -180q-88 -70 -196 -70q-25 0 -107 14q-72 12 -106 13q-39 0 -52 -39l-39 8z" />
<glyph unicode="t" horiz-adv-x="706" d="M16 885q109 41 158 123q43 70 68 194h34v-287h320l-43 -79h-277v-566q0 -53 53.5 -112.5t106.5 -59.5q35 0 88 56l51 55q20 0 21 -33q-90 -176 -246 -176q-92 0 -155 57q-68 63 -68 152v627h-96z" />
<glyph unicode="u" horiz-adv-x="1159" d="M-6 901l299 53v-651q0 -86 53 -145q55 -63 141 -64q84 0 281 142v550q0 74 -193 86v33l336 62v-781q0 -76 84 -75q23 0 78 12l-2 -41l-303 -86v180q-186 -186 -405.5 -186t-219.5 297v442q0 63 -41 96q-45 35 -104 35z" />
<glyph unicode="v" horiz-adv-x="1046" d="M-16 879v36h456v-36q-145 0 -145 -54q0 -15 246 -608q6 -16 14 -16q12 0 20 20l220 486q20 43 20 81q0 94 -158 95l13 32h377l-5 -36q-49 0 -100 -48q-45 -41 -65 -92l-330 -749h-53l-334 770q-51 119 -176 119z" />
<glyph unicode="w" horiz-adv-x="1552" d="M-14 879v36h401l-2 -45q-123 0 -123 -55q0 -20 113 -289l135 -309q6 -16 14 -16q10 0 19 20l200 475q-43 113 -61 133q-39 49 -129 50v36h432l-4 -36q-137 0 -137 -54q0 -20 231 -608q6 -16 16.5 -16t18.5 20l197 486q20 47 20 86q0 90 -141 90l10 32h356l-4 -36 q-51 0 -102 -41q-45 -39 -66 -90l-305 -771h-51l-256 644l-260 -644h-51l-318 758q-61 144 -153 144z" />
<glyph unicode="x" horiz-adv-x="1185" d="M-8 33q129 25 196 108l287 340l-227 303q-59 74 -195 74l-2 60h445l-9 -44q-102 0 -102 -38q0 -29 174 -252l158 188q18 23 18 57q0 37 -108 56l-4 33h419l-4 -29q-121 0 -254 -123q-8 -6 -194 -219l309 -389q86 -109 188 -109l9 -49h-449l4 45q47 8 60 12q35 12 34.5 43 t-106.5 172l-137 177q-252 -293 -252 -336q0 -59 145 -68v-45h-395z" />
<glyph unicode="y" horiz-adv-x="1083" d="M14 918h451l-6 -41q-121 0 -121 -70q0 -23 272 -612l129 317q106 262 107 283q0 86 -121 86h-8v37h366l2 -33q-111 0 -190 -152q-25 -47 -123 -291q-92 -246 -319 -802q-68 -152 -160 -152q-125 0 -125 63q0 96 137 130q86 22 148 129q18 31 79 190l-342 733 q-35 72 -63 98q-37 31 -107 50z" />
<glyph unicode="z" horiz-adv-x="968" d="M16 57l580 770h-383q-53 0 -90 -86l-41 -135l-43 4l78 344l35 13q31 -49 73 -49h604q-4 -12 -16 -41l-606 -783h455q47 0 90 68l53 104h33l-103 -266h-717z" />
<glyph unicode="{" horiz-adv-x="661" d="M76 705q90 25 153 90q68 70 68 157q0 74 -20.5 199t-20.5 199q0 229 371 276l16 -41q-129 -27 -176 -61q-68 -49 -68 -166q0 -68 35 -184.5t35 -184.5q0 -203 -291 -284q291 -80 291 -283q0 -70 -35 -186.5t-35 -182.5q0 -117 68 -166q45 -33 176 -63l-16 -39 q-371 47 -371 274q0 76 20.5 201t20.5 199q0 86 -68 157q-63 69 -153 89z" />
<glyph unicode="|" horiz-adv-x="417" d="M164 -481v1898h78v-1898h-78z" />
<glyph unicode="}" horiz-adv-x="628" d="M12 -176q129 31 174 63q70 51 70 166q0 49 -37 183q-35 127 -35 186q0 203 291 283q-291 82 -291 284q0 57 35 185q37 133 37 184q0 115 -70 166q-47 35 -174 61l15 41q371 -47 370 -276q0 -74 -20.5 -199t-20.5 -199q0 -84 70 -157q63 -68 152 -90q-86 -20 -152 -89 q-70 -74 -70 -157q0 -74 20.5 -199t20.5 -201q0 -227 -370 -274z" />
<glyph unicode="~" horiz-adv-x="1091" d="M16 707q61 262 263 262q135 0 284 -84q145 -82 209 -82q72 0 119 47q43 43 57 113l68 -27q-61 -262 -262 -262q-139 0 -285 82q-150 84 -211 84q-68 0 -115 -47q-43 -41 -59 -113z" />
<glyph unicode="&#xa1;" horiz-adv-x="475" d="M84 926q0 51 35 86t86 35t86 -35t35 -86.5t-35 -86t-86 -34.5t-86 35t-35 86zM90 -438q0 213 41 520q53 397 62 516h24q8 -119 62 -516q41 -307 40 -520q0 -25 -45 -49.5t-69.5 -24.5t-67.5 25q-47 29 -47 49z" />
<glyph unicode="&#xa2;" horiz-adv-x="915" d="M10 430q0 221 152 367q154 145 370 137l15 -2l117 350l84 -22l-119 -347q160 -49 159 -118q0 -94 -90 -95q-53 0 -69 41l-31 82l-240 -700q63 -35 125 -35q188 0 287 168q33 0 41 -10q-123 -264 -393 -264q-49 0 -105 16l-100 -297l-70 14l103 310q-106 55 -172 170 q-64 108 -64 235zM160 461q0 -170 135 -293l231 700q-25 6 -59 6q-150 0 -236 -137q-71 -118 -71 -276z" />
<glyph unicode="&#xa3;" horiz-adv-x="1026" d="M20 106q0 98 76 150q63 43 168 43q68 0 150 -45q4 37 4 57q0 126 -129 363h-244v63h211q-82 168 -82 295q0 190 121 299q114 104 307 105q94 0 211 -62q135 -72 135 -155q0 -37 -26.5 -64t-63.5 -27q-68 0 -88 62q-35 100 -45 115q-46 61 -172 61q-94 0 -168 -55 q-84 -61 -84 -150q0 -104 47 -221q16 -39 101 -203h303v-63h-273q59 -125 60 -232q0 -121 -52 -231q178 -111 277 -111q132 0 190 166l31 -6q-43 -141 -94 -205q-72 -90 -199 -90q-86 0 -147 41q-43 29 -115 107q-111 -154 -254 -154q-61 0 -108.5 43t-47.5 104zM66 117 q0 -63 38 -88q27 -18 97 -19q131 0 190 146q-102 104 -192 104q-49 0 -90 -47q-43 -49 -43 -96z" />
<glyph unicode="&#xa4;" horiz-adv-x="1105" d="M131 463l129 129q-90 102 -90 242q0 141 90 243l-129 129l35 33l129 -129q104 92 242 92q139 0 243 -92l135 135l33 -33l-135 -135q92 -104 92 -243q0 -137 -92 -242l129 -129l-33 -35l-129 129q-102 -90 -243 -90q-139 0 -242 90l-129 -129zM248 834q0 -121 84 -205 t205 -84q123 0 206.5 84t83.5 205q0 123 -84 206.5t-206 83.5q-121 0 -205 -83.5t-84 -206.5z" />
<glyph unicode="&#xa5;" horiz-adv-x="1245" d="M2 1417h463l-8 -49q-160 -12 -160 -49q0 -16 326 -664l309 656q0 53 -148 63l-22 43h387l-2 -41q-80 -4 -103 -22q-20 -14 -55 -90l-295 -611h387v-61h-417v-176h417v-64h-417v-145q0 -96 38 -135q35 -35 136 -35v-37h-492v37q178 0 178 170v145h-407v64h407v131l-22 45 h-385v61h354l-303 615q-25 51 -57 75q-25 18 -91 29z" />
<glyph unicode="&#xa6;" horiz-adv-x="405" d="M164 227h78v-708h-78v708zM164 711v706h78v-706h-78z" />
<glyph unicode="&#xa7;" horiz-adv-x="921" d="M109 514q0 84 73 186q59 78 148 144q-117 115 -117 256q0 102 84 192q86 92 182 92q100 0 178 -51q88 -57 88 -151q0 -45 -20 -74q-25 -35 -63 -35q-74 0 -74 72q0 6 8 39q6 25 6 35q0 53 -45 88q-41 29 -94 28q-129 0 -129 -176q0 -123 127 -229l235 -185 q129 -123 129 -282q0 -86 -75 -187q-59 -78 -148 -143q119 -113 119 -256q0 -98 -86 -192.5t-182 -94.5q-98 0 -177 54q-90 59 -90 151q0 41 23 74q23 35 61 35q74 0 74 -72q0 -14 -6 -38.5t-6 -35.5q0 -53 43 -88q41 -29 94 -28q129 0 129 174q0 123 -127 231l-235 184 q-127 123 -127 283zM221 580q0 -100 135 -232l215 -186q139 100 140 235q0 100 -133 232l-216 186q-141 -102 -141 -235z" />
<glyph unicode="&#xa8;" horiz-adv-x="745" d="M43 1280q0 45 28.5 73.5t73.5 28.5t74 -28q31 -31 31 -74t-31 -73.5t-74 -30.5t-73 30q-29 29 -29 74zM391 1280q0 43 31 74q29 29 72 28q45 0 73 -28q31 -31 31 -74t-30.5 -73.5t-73.5 -30.5q-41 0 -72 30.5t-31 73.5z" />
<glyph unicode="&#xa9;" horiz-adv-x="1546" d="M61 705q0 276 197 473q195 195 471 194q281 0 475 -194q197 -197 197 -473t-196.5 -473t-475.5 -197q-274 0 -471 197t-197 473zM111 705q0 -256 182 -439q180 -180 436 -180q260 0 440.5 180t180.5 439q0 256 -181 436q-182 182 -440 182q-254 0 -436 -182t-182 -436z M309 686q0 184 121 318q127 133 311 133q123 0 220 -45q29 -14 38 -15q12 0 19 8h16l8 -178h-20q-25 92 -104 148q-76 51 -177 51q-145 0 -237 -121q-84 -113 -84 -260q0 -158 90 -272q98 -125 250 -125q86 0 166 55q78 55 112 135l25 -6q-37 -113 -113 -184 q-182 -29 -229 -29q-170 0 -289 107q-123 110 -123 280z" />
<glyph unicode="&#xaa;" horiz-adv-x="790" d="M86 410v67h565v-67h-565zM104 874q0 71 56 117q35 29 119 62l153 63v101q0 55 -37 90q-39 37 -94 36q-86 0 -86 -92q0 -2 4 -14q2 -6 2 -16q0 -23 -39 -45q-35 -18 -59 -19q-12 0 -12 21q0 90 75 147q70 51 162 51q186 0 187 -162v-350q0 -57 38 -57q23 0 91 39l2 -29 q-109 -78 -152 -78q-59 0 -80 88q-74 -55 -88 -63q-49 -27 -104 -27q-57 0 -99 41q-39 39 -39 96zM201 885q0 -84 90 -84q51 0 141 71v205l-149 -65q-82 -49 -82 -127z" />
<glyph unicode="&#xab;" horiz-adv-x="1017" d="M59 653l390 484l30 -58l-231 -426l231 -426l-30 -55zM481 653l389 484l31 -58l-231 -426l231 -426l-31 -55z" />
<glyph unicode="&#xac;" horiz-adv-x="1214" d="M43 817v101h979v-451h-88v350h-891z" />
<glyph unicode="&#xad;" horiz-adv-x="782" d="M68 573v125h645v-125h-645z" />
<glyph unicode="&#xae;" horiz-adv-x="1546" d="M61 705q0 276 197 473q195 195 471 194q281 0 475 -194q197 -197 197 -473t-196.5 -473t-475.5 -197q-274 0 -471 197t-197 473zM111 705q0 -256 182 -439q180 -180 436 -180q260 0 440.5 180t180.5 439q0 256 -181 436q-182 182 -440 182q-254 0 -436 -182t-182 -436z M360 274l5 27h8q63 0 87.5 24.5t24.5 88.5v635q0 84 -120 79v25q72 10 253 10q180 0 273 -35q139 -55 139 -210q0 -158 -168 -238l189 -291q51 -80 100 -80l4 -30h-4q-96 -4 -174 61q-59 49 -119 145l-92 162q-31 -6 -59 -6q-37 0 -113 21v-256q0 -57 43 -87q41 -25 96 -22 l4 -16v-7h-377zM594 694q43 -12 125 -12q182 0 182 236q0 89 -55 153q-55 63 -144 64l-108 -13v-428z" />
<glyph unicode="&#xaf;" horiz-adv-x="1024" d="M0 1417v103h973v-103h-973z" />
<glyph unicode="&#xb0;" horiz-adv-x="864" d="M100 1073q0 131 94.5 225.5t223.5 94.5q131 0 225 -95q92 -92 92 -225q0 -131 -92 -223t-225 -92q-131 0 -223 92q-95 94 -95 223zM215 1071q0 -84 59.5 -143.5t143.5 -59.5q86 0 145.5 59.5t59.5 143.5q0 86 -59.5 145.5t-145.5 59.5q-84 0 -143.5 -59.5t-59.5 -145.5z " />
<glyph unicode="&#xb1;" horiz-adv-x="1007" d="M106 121v94h832v-94h-832zM106 668v94h369v366h94v-366h369v-94h-369v-369h-94v369h-369z" />
<glyph unicode="&#xb2;" horiz-adv-x="655" d="M57 1235q27 78 101 135q76 59 157 60q80 0 129 -48q53 -49 54 -122q0 -244 -328 -535h297q29 0 57 47q14 25 20.5 35t4.5 10q-5 0 3 -3q16 -5 21 -7q0 -12 -49 -156h-452l-11 33q362 295 363 533q0 141 -127 141q-143 0 -215 -133z" />
<glyph unicode="&#xb3;" horiz-adv-x="606" d="M45 1290q59 88 98 121q58 49 142 49q70 0 123 -47t53 -115q0 -61 -37 -100q-25 -27 -90 -61q78 -6 123 -72q39 -59 39 -141q0 -154 -82 -217q-76 -59 -232 -60q-129 0 -129 78q0 43 43 43q39 0 82 -37t86 -37q152 0 152 211q0 57 -29 109q-33 59 -88 59q-53 0 -119 -31 l-10 27q51 16 117 76q72 66 71 110q0 53 -39 91q-41 37 -90 36q-61 0 -166 -98z" />
<glyph unicode="&#xb4;" horiz-adv-x="618" d="M160 1040l153 402l174 -60l-305 -370z" />
<glyph unicode="&#xb5;" horiz-adv-x="1191" d="M-6 901l299 53v-651q0 -86 53 -145q55 -63 141 -63.5t281 141.5v550q0 78 -193 86v33l336 62v-781q0 -86 62 -86q14 0 43 35q31 41 45 43l29 -49q-20 -51 -91 -104q-72 -53 -125 -54q-74 0 -96 72q-12 43 -10 133q-186 -186 -406 -186q-49 0 -88 16q23 -266 23 -323 q0 -65 -18 -123q-27 -82 -76 -82q-39 0 -68 88q-18 57 -18 117q0 80 12 231q14 145 14 229q0 2 4 256q2 106 3 254q0 96 -25 144q-33 63 -127 63z" />
<glyph unicode="&#xb6;" horiz-adv-x="1021" d="M0 1020q0 186 176 301q150 96 350 96h498v-67h-190v-1831h-78v1831h-174v-1831h-78v1069q-244 6 -363 94q-141 105 -141 338z" />
<glyph unicode="&#xb7;" horiz-adv-x="638" d="M250 791q0 43 29 71q31 31 73.5 31t73.5 -31t31 -71q0 -43 -31 -74t-74 -31t-73 31q-29 29 -29 74z" />
<glyph unicode="&#x2219;" horiz-adv-x="638" d="M250 791q0 43 29 71q31 31 73.5 31t73.5 -31t31 -71q0 -43 -31 -74t-74 -31t-73 31q-29 29 -29 74z" />
<glyph unicode="&#xb8;" horiz-adv-x="632" d="M131 -336q45 -14 125 -14q53 0 98 26q55 33 56 84q0 76 -101 76q-41 0 -67 -8l123 195h55l-58 -103q70 -10 111 -43q53 -43 53 -102q0 -80 -90 -129q-76 -41 -162 -41t-143 30v29z" />
<glyph unicode="&#xb9;" horiz-adv-x="542" d="M119 1305q102 53 186 133h35v-670q0 -57 29 -78q20 -14 82 -14v-21h-318v21q115 0 115 92v575q-51 -31 -121 -63z" />
<glyph unicode="&#xba;" horiz-adv-x="774" d="M49 1065q0 143 86 235.5t230 92.5q139 0 227 -90q90 -94 90 -230q0 -141 -90 -227q-92 -88 -230 -88q-127 0 -221 90q-92 90 -92 217zM86 410v67h565v-67h-565zM170 1094q0 -113 51 -197q61 -102 166 -102q172 0 172 219q0 139 -41 223q-55 121 -174 121q-108 0 -147 -86 q-27 -55 -27 -178z" />
<glyph unicode="&#xbb;" d="M96 227l234 426l-234 426l33 58l389 -484l-389 -481zM518 227l234 426l-234 426l33 58l389 -484l-389 -481z" />
<glyph unicode="&#xbc;" horiz-adv-x="1204" d="M-4 1307q115 59 186 131h31v-664q0 -57 31 -78q20 -14 80 -14v-18h-314v18q115 0 115 92v569q-33 -20 -119 -61zM182 4l631 1415l84 -18l-625 -1415zM633 221v35l366 526h27v-491h127v-70h-127v-223h-76v223h-317zM700 291h250v364z" />
<glyph unicode="&#xbd;" horiz-adv-x="1304" d="M-4 1307q115 59 186 131h31v-664q0 -57 31 -78q20 -14 80 -14v-18h-314v18q115 0 115 92v569q-33 -20 -119 -61zM182 4l631 1415l84 -18l-625 -1415zM713 557q29 78 96 131q74 57 149 57q74 0 125.5 -45t51.5 -118q0 -233 -316 -512h287q27 0 55 45l14.5 24.5t8.5 14.5 t0 4l22 -8q0 -14 -45 -150h-436l-8 31q346 279 346 512q0 133 -121 133q-137 0 -207 -127z" />
<glyph unicode="&#xbe;" horiz-adv-x="1275" d="M51 1296q55 84 90 113q57 47 135 47q68 0 117 -43t49 -110q0 -88 -118 -152q72 -6 114 -70q37 -57 37 -133q0 -143 -78 -205q-70 -55 -217 -55q-123 0 -123 74q0 41 41 41t78 -35q40 -37 80 -37q143 0 143 201q0 55 -26 102q-31 57 -82 58q-53 0 -115 -31l-8 26 q41 10 108 72q70 63 70 105q0 47 -37 84q-35 35 -86 34q-57 0 -155 -92zM254 4l631 1415l84 -18l-625 -1415zM705 221v35l364 526h29v-491h127v-70h-127v-223h-76v223h-317zM772 291h250v364z" />
<glyph unicode="&#xbf;" horiz-adv-x="747" d="M29 -209q0 133 88 229q12 16 168 144q90 76 100 151q6 49 6 91q0 106 -49 151l49 21q96 -139 96 -263q0 -98 -65 -172q-27 -29 -143 -120q-72 -55 -93 -107q-16 -39 -16 -135q0 -92 45 -152q49 -66 139 -65q49 0 105 55q49 52 61 105q18 90 88 90q61 0 62 -76 q0 -104 -117 -178q-102 -66 -211 -66q-137 0 -223 80q-90 84 -90 217zM258 831q0 49 37 87q35 35 86 34q49 0 84 -34q37 -37 37 -87q0 -47 -37 -83.5t-84 -36.5q-49 0 -86 36.5t-37 83.5z" />
<glyph unicode="&#xc0;" horiz-adv-x="1558" d="M18 0v45h68q86 0 143 150l443 1167q4 12 4 18q0 20 -10 29l6 8h121l475 -1257q27 -76 69 -99q27 -16 117 -16v-45h-586v45h146q63 0 63 70q0 47 -35 141l-104 279q-16 41 -43 40h-393q-31 0 -45 -36l-88 -217q-70 -180 -70 -207q0 -72 80 -72l2 2h131v-45h-494zM510 678 q0 -12 10 -12h332q20 0 20 20q0 8 -1 17l-1 10l-157 420q-2 12 -17 18q-8 0 -14 -18q-172 -449 -172 -455zM525 1790l174 60l153 -402l-24 -28z" />
<glyph unicode="&#xc1;" horiz-adv-x="1558" d="M18 0v45h68q86 0 143 150l443 1167q4 12 4 18q0 20 -10 29l6 8h121l475 -1257q27 -76 69 -99q27 -16 117 -16v-45h-586v45h146q63 0 63 70q0 47 -35 141l-104 279q-16 41 -43 40h-393q-31 0 -45 -36l-88 -217q-70 -180 -70 -207q0 -72 80 -72l2 2h131v-45h-494zM510 678 q0 -12 10 -12h332q20 0 20 20q0 8 -1 17l-1 10l-157 420q-2 12 -17 18q-8 0 -14 -18q-172 -449 -172 -455zM606 1448l153 402l174 -60l-305 -370z" />
<glyph unicode="&#xc2;" horiz-adv-x="1556" d="M18 0v45h68q86 0 143 150l443 1167q4 12 4 18q0 20 -10 29l6 8h121l475 -1257q27 -76 69 -99q27 -16 117 -16v-45h-586v45h146q63 0 63 70q0 47 -35 141l-104 279q-16 41 -43 40h-393q-31 0 -45 -36l-88 -217q-70 -180 -70 -207q0 -72 80 -72l2 2h131v-45h-494zM510 678 q0 -12 10 -12h332q20 0 20 20q0 8 -1 17l-1 10l-157 420q-2 12 -17 18q-8 0 -14 -18q-172 -449 -172 -455zM477 1477l235 338l70 -12l244 -320l-47 -10l-254 195l-207 -207z" />
<glyph unicode="&#xc3;" horiz-adv-x="1552" d="M18 0v45h68q86 0 143 150l443 1167q4 12 4 18q0 20 -10 29l6 8h121l475 -1257q27 -76 69 -99q27 -16 117 -16v-45h-586v45h146q63 0 63 70q0 47 -35 141l-104 279q-16 41 -43 40h-393q-31 0 -45 -36l-88 -217q-70 -180 -70 -207q0 -72 80 -72l2 2h131v-45h-494zM510 678 q0 -12 10 -12h332q20 0 20 20q0 8 -1 17l-1 10l-157 420q-2 12 -17 18q-8 0 -14 -18q-172 -449 -172 -455zM449 1559q37 219 159 219q88 0 176.5 -69.5t126.5 -69.5q84 0 107 133l41 -23q-37 -217 -160 -217q-88 0 -176 70q-86 68 -127 67q-84 0 -106 -133z" />
<glyph unicode="&#xc4;" horiz-adv-x="1558" d="M18 0v45h68q86 0 143 150l443 1167q4 12 4 18q0 20 -10 29l6 8h121l475 -1257q27 -76 69 -99q27 -16 117 -16v-45h-586v45h146q63 0 63 70q0 47 -35 141l-104 279q-16 41 -43 40h-393q-31 0 -45 -36l-88 -217q-70 -180 -70 -207q0 -72 80 -72l2 2h131v-45h-494zM510 678 q0 -12 10 -12h332q20 0 20 20q0 8 -1 17l-1 10l-157 420q-2 12 -17 18q-8 0 -14 -18q-172 -449 -172 -455zM457 1651q0 45 28.5 73.5t73.5 28.5t74 -28q31 -31 31 -74t-31 -73.5t-74 -30.5t-73 30q-29 29 -29 74zM805 1651q0 43 31 74q29 29 72 28q45 0 73 -28 q31 -31 31 -74t-30.5 -73.5t-73.5 -30.5q-41 0 -72 30.5t-31 73.5z" />
<glyph unicode="&#xc5;" horiz-adv-x="1558" d="M18 0v45h68q86 0 143 150l443 1167q4 12 4 18q0 20 -10 29l6 8h121l475 -1257q27 -76 69 -99q27 -16 117 -16v-45h-586v45h146q63 0 63 70q0 47 -35 141l-104 279q-16 41 -43 40h-393q-31 0 -45 -36l-88 -217q-70 -180 -70 -207q0 -72 80 -72l2 2h131v-45h-494zM510 678 q0 -12 10 -12h332q20 0 20 20q0 8 -1 17l-1 10l-157 420q-2 12 -17 18q-8 0 -14 -18q-172 -449 -172 -455zM924 1525q0 -80 -60 -139q-57 -57 -137 -57q-84 0 -141.5 57t-57.5 139q0 84 57.5 141.5t141.5 57.5q80 0 137 -57q60 -60 60 -142zM852 1525.5q0 53.5 -37 90 t-88 36.5q-53 0 -90 -36.5t-37 -90t37 -90.5t90 -37q51 0 88 37t37 90.5z" />
<glyph unicode="&#xc6;" horiz-adv-x="1769" d="M-6 0l12 45h49q61 0 142 150l589 1097q-10 61 -75 80q-41 10 -121 10v35h991l10 -307h-35q-20 233 -141 233h-454v-565h362q88 0 113 174h30v-430h-30q-31 186 -113 187h-362v-521q0 -111 79 -110h398q137 0 184 262l39 -4l-39 -338h-1057v37l45 2l2 8q178 -8 179 125 v395q-4 10 -17 10h-282q-20 0 -41 -36q-229 -385 -230 -451q0 -45 41 -45l2 2h94l-12 -45h-352zM526 678q0 -4 4 -12h238q23 0 23 30l-5 455q-9 -3 -18 -18q-54 -90 -242 -455z" />
<glyph unicode="&#xc7;" horiz-adv-x="1406" d="M39 653q0 317 207 543q213 227 530 227q211 0 375 -75q53 -25 70 -25q20 0 28 14l31 -2l14 -301h-37q-43 160 -180 252q-127 88 -301 88q-250 0 -407 -207q-141 -188 -142 -446q0 -272 154 -469q164 -213 430 -213q145 0 283 94q131 92 190 234l41 -13 q-66 -193 -190 -315q-307 -49 -394 -49q-291 0 -493 184q-209 190 -209 479zM469 -336q45 -14 125 -14q53 0 98 26q55 33 56 84q0 76 -101 76q-41 0 -67 -8l123 195h55l-58 -103q70 -10 111 -43q53 -43 53 -102q0 -80 -90 -129q-76 -41 -162 -41t-143 30v29z" />
<glyph unicode="&#xc8;" horiz-adv-x="1259" d="M-6 0v37q238 2 237 135v1079q0 76 -41 105q-45 29 -174 28v35h1057l12 -307h-36q-25 231 -150 231h-485v-563h387q92 0 119 174h32v-432h-32q-35 188 -119 189h-387v-521q0 -111 84 -110h424q147 0 196 260l41 -2l-41 -338h-1124zM398 1790l174 60l153 -402l-24 -28z" />
<glyph unicode="&#xc9;" horiz-adv-x="1253" d="M-6 0v37q238 2 237 135v1079q0 76 -41 105q-45 29 -174 28v35h1057l12 -307h-36q-25 231 -150 231h-485v-563h387q92 0 119 174h32v-432h-32q-35 188 -119 189h-387v-521q0 -111 84 -110h424q147 0 196 260l41 -2l-41 -338h-1124zM555 1448l153 402l174 -60l-305 -370z " />
<glyph unicode="&#xca;" horiz-adv-x="1259" d="M-6 0v37q238 2 237 135v1079q0 76 -41 105q-45 29 -174 28v35h1057l12 -307h-36q-25 231 -150 231h-485v-563h387q92 0 119 174h32v-432h-32q-35 188 -119 189h-387v-521q0 -111 84 -110h424q147 0 196 260l41 -2l-41 -338h-1124zM373 1477l235 338l70 -12l244 -320 l-47 -10l-254 195l-207 -207z" />
<glyph unicode="&#xcb;" horiz-adv-x="1257" d="M-6 0v37q238 2 237 135v1079q0 76 -41 105q-45 29 -174 28v35h1057l12 -307h-36q-25 231 -150 231h-485v-563h387q92 0 119 174h32v-432h-32q-35 188 -119 189h-387v-521q0 -111 84 -110h424q147 0 196 260l41 -2l-41 -338h-1124zM330 1651q0 45 28.5 73.5t73.5 28.5 t74 -28q31 -31 31 -74t-31 -73.5t-74 -30.5t-73 30q-29 29 -29 74zM678 1651q0 43 31 74q29 29 72 28q45 0 73 -28q31 -31 31 -74t-30.5 -73.5t-73.5 -30.5q-41 0 -72 30.5t-31 73.5z" />
<glyph unicode="&#xcc;" horiz-adv-x="755" d="M39 0v37q213 0 213 170v1007q0 104 -53 142q-41 29 -154 28v35h578v-35q-205 0 -205 -170v-1007q0 -106 53 -141q41 -29 152 -29v-37h-584zM109 1790l174 60l153 -402l-24 -28z" />
<glyph unicode="&#xcd;" horiz-adv-x="759" d="M39 0v37q213 0 213 170v1007q0 104 -53 142q-41 29 -154 28v35h578v-35q-205 0 -205 -170v-1007q0 -106 53 -141q41 -29 152 -29v-37h-584zM219 1448l153 402l174 -60l-305 -370z" />
<glyph unicode="&#xce;" horiz-adv-x="759" d="M39 0v37q213 0 213 170v1007q0 104 -53 142q-41 29 -154 28v35h578v-35q-205 0 -205 -170v-1007q0 -106 53 -141q41 -29 152 -29v-37h-584zM78 1477l235 338l70 -12l244 -320l-47 -10l-254 195l-207 -207z" />
<glyph unicode="&#xcf;" horiz-adv-x="759" d="M39 0v37q213 0 213 170v1007q0 104 -53 142q-41 29 -154 28v35h578v-35q-205 0 -205 -170v-1007q0 -106 53 -141q41 -29 152 -29v-37h-584zM55 1651q0 45 28.5 73.5t73.5 28.5t74 -28q31 -31 31 -74t-31 -73.5t-74 -30.5t-73 30q-29 29 -29 74zM403 1651q0 43 31 74 q29 29 72 28q45 0 73 -28q31 -31 31 -74t-30.5 -73.5t-73.5 -30.5q-41 0 -72 30.5t-31 73.5z" />
<glyph unicode="&#xd0;" horiz-adv-x="1560" d="M18 0v43q102 0 146 31q49 37 49 135v502h-156v75h156v478q0 115 -133 114q-14 0 -51 -4v39q178 20 434 21q406 0 647 -134q309 -174 309 -546q0 -326 -211 -541q-209 -213 -536 -213h-654zM387 186q0 -147 82 -147h203q268 0 407 213q119 180 119 465q0 670 -698 669 q-31 0 -113 -4v-596h442v-75h-442v-525z" />
<glyph unicode="&#xd1;" horiz-adv-x="1576" d="M23 41q164 0 163 84v1137q0 53 -59 81q-46 25 -104 31l6 43h317l952 -1116v952q0 61 -61 93q-46 23 -104 22h-13v49h439l4 -10q0 -10 -4 -39q-106 -12 -119 -16q-53 -23 -54 -99v-1253h-43l-1075 1204v-1036q0 -129 172 -129q31 0 45 2v-41h-450zM516 1559 q37 219 159 219q88 0 176.5 -69.5t126.5 -69.5q84 0 107 133l41 -23q-37 -217 -160 -217q-88 0 -176 70q-86 68 -127 67q-84 0 -106 -133z" />
<glyph unicode="&#xd2;" horiz-adv-x="1617" d="M8 670q0 328 199 544q203 221 528 222q322 0 527 -179q217 -188 217 -501q0 -332 -199 -545q-207 -223 -532 -223q-319 0 -525 180q-215 189 -215 502zM221 731q0 -268 133 -463q150 -221 408 -221q260 0 395 193q119 172 119 442q0 268 -135 469q-154 227 -414 227 q-258 0 -391 -200q-115 -175 -115 -447zM502 1790l174 60l153 -402l-24 -28z" />
<glyph unicode="&#xd3;" horiz-adv-x="1617" d="M8 670q0 328 199 544q203 221 528 222q322 0 527 -179q217 -188 217 -501q0 -332 -199 -545q-207 -223 -532 -223q-319 0 -525 180q-215 189 -215 502zM221 731q0 -268 133 -463q150 -221 408 -221q260 0 395 193q119 172 119 442q0 268 -135 469q-154 227 -414 227 q-258 0 -391 -200q-115 -175 -115 -447zM652 1448l153 402l174 -60l-305 -370z" />
<glyph unicode="&#xd4;" horiz-adv-x="1617" d="M8 670q0 328 199 544q203 221 528 222q322 0 527 -179q217 -188 217 -501q0 -332 -199 -545q-207 -223 -532 -223q-319 0 -525 180q-215 189 -215 502zM221 731q0 -268 133 -463q150 -221 408 -221q260 0 395 193q119 172 119 442q0 268 -135 469q-154 227 -414 227 q-258 0 -391 -200q-115 -175 -115 -447zM463 1477l235 338l70 -12l244 -320l-47 -10l-254 195l-207 -207z" />
<glyph unicode="&#xd5;" horiz-adv-x="1617" d="M8 670q0 328 199 544q203 221 528 222q322 0 527 -179q217 -188 217 -501q0 -332 -199 -545q-207 -223 -532 -223q-319 0 -525 180q-215 189 -215 502zM221 731q0 -268 133 -463q150 -221 408 -221q260 0 395 193q119 172 119 442q0 268 -135 469q-154 227 -414 227 q-258 0 -391 -200q-115 -175 -115 -447zM418 1559q37 219 159 219q88 0 176.5 -69.5t126.5 -69.5q84 0 107 133l41 -23q-37 -217 -160 -217q-88 0 -176 70q-86 68 -127 67q-84 0 -106 -133z" />
<glyph unicode="&#xd6;" horiz-adv-x="1617" d="M8 670q0 328 199 544q203 221 528 222q322 0 527 -179q217 -188 217 -501q0 -332 -199 -545q-207 -223 -532 -223q-319 0 -525 180q-215 189 -215 502zM221 731q0 -268 133 -463q150 -221 408 -221q260 0 395 193q119 172 119 442q0 268 -135 469q-154 227 -414 227 q-258 0 -391 -200q-115 -175 -115 -447zM455 1651q0 45 28.5 73.5t73.5 28.5t74 -28q31 -31 31 -74t-31 -73.5t-74 -30.5t-73 30q-29 29 -29 74zM803 1651q0 43 31 74q29 29 72 28q45 0 73 -28q31 -31 31 -74t-30.5 -73.5t-73.5 -30.5q-41 0 -72 30.5t-31 73.5z" />
<glyph unicode="&#xd7;" horiz-adv-x="989" d="M139 369l310 325l-310 307l43 52l312 -308l309 308l45 -52l-311 -307l311 -325l-45 -47l-309 325l-312 -325z" />
<glyph unicode="&#xd8;" horiz-adv-x="1619" d="M8 670q0 326 199 542q203 223 528 224q268 0 457 -125l129 151l57 -45l-127 -151q227 -187 228 -510q0 -332 -199 -545q-207 -223 -532 -223q-268 0 -461 131l-140 -164l-57 51l135 160q-217 189 -217 504zM221 731q0 -242 115 -434l766 905q-150 176 -375 176 q-258 0 -391 -200q-115 -175 -115 -447zM381 231q147 -184 381 -184q260 0 395 195q119 172 119 440q0 261 -129 461z" />
<glyph unicode="&#xd9;" horiz-adv-x="1466" d="M-25 1368l15 49h487l-6 -49q-174 -14 -174 -113v-778q0 -150 170 -276q156 -117 311 -117q174 0 289 94q127 104 127 268v736q0 186 -165 186h-5l-12 49l461 -2l-3 -49l-2 -2q-115 -18 -131 -29q-51 -27 -51 -116v-791q0 -211 -182 -336q-160 -109 -381 -108 q-249 0 -412 141q-172 147 -172 391v754q0 98 -154 98h-10zM533 1790l174 60l153 -402l-24 -28z" />
<glyph unicode="&#xda;" horiz-adv-x="1456" d="M-25 1368l15 49h487l-6 -49q-174 -14 -174 -113v-778q0 -150 170 -276q156 -117 311 -117q174 0 289 94q127 104 127 268v736q0 186 -165 186h-5l-12 49l461 -2l-3 -49l-2 -2q-115 -18 -131 -29q-51 -27 -51 -116v-791q0 -211 -182 -336q-160 -109 -381 -108 q-249 0 -412 141q-172 147 -172 391v754q0 98 -154 98h-10zM662 1448l153 402l174 -60l-305 -370z" />
<glyph unicode="&#xdb;" horiz-adv-x="1466" d="M-25 1368l15 49h487l-6 -49q-174 -14 -174 -113v-778q0 -150 170 -276q156 -117 311 -117q174 0 289 94q127 104 127 268v736q0 186 -165 186h-5l-12 49l461 -2l-3 -49l-2 -2q-115 -18 -131 -29q-51 -27 -51 -116v-791q0 -211 -182 -336q-160 -109 -381 -108 q-249 0 -412 141q-172 147 -172 391v754q0 98 -154 98h-10zM479 1477l235 338l70 -12l244 -320l-47 -10l-254 195l-207 -207z" />
<glyph unicode="&#xdc;" horiz-adv-x="1456" d="M-25 1368l15 49h487l-6 -49q-174 -14 -174 -113v-778q0 -150 170 -276q156 -117 311 -117q174 0 289 94q127 104 127 268v736q0 186 -165 186h-5l-12 49l461 -2l-3 -49l-2 -2q-115 -18 -131 -29q-51 -27 -51 -116v-791q0 -211 -182 -336q-160 -109 -381 -108 q-249 0 -412 141q-172 147 -172 391v754q0 98 -154 98h-10zM453 1651q0 45 28.5 73.5t73.5 28.5t74 -28q31 -31 31 -74t-31 -73.5t-74 -30.5t-73 30q-29 29 -29 74zM801 1651q0 43 31 74q29 29 72 28q45 0 73 -28q31 -31 31 -74t-30.5 -73.5t-73.5 -30.5q-41 0 -72 30.5 t-31 73.5z" />
<glyph unicode="&#xdd;" horiz-adv-x="1251" d="M-20 1417h546l-8 -49q-190 -15 -190 -49q0 -12 389 -664l366 656q0 53 -174 63l-26 43h460l-4 -41q-90 -4 -116.5 -20.5t-69.5 -91.5l-387 -670v-387q0 -104 53 -141q41 -29 152 -29v-37h-584v37q211 0 211 170v340l-424 721q-33 57 -72 80q-31 16 -102 24zM590 1448 l153 402l174 -60l-305 -370z" />
<glyph unicode="&#xde;" horiz-adv-x="1159" d="M39 0v37q213 0 213 170v1007q0 104 -53 142q-43 29 -154 28v35h578v-35q-121 0 -164 -47t-43 -168q0 -4 1 -23.5t1 -33.5v-57q272 -2 413 -62q215 -88 216 -317q0 -205 -185 -299q-145 -74 -370 -74q-49 0 -74 2v-98q0 -106 53 -141q41 -29 152 -29v-37h-584zM418 381 q246 12 309 53q106 63 107 277q0 162 -138 223q-80 35 -278 51v-604z" />
<glyph unicode="&#xdf;" horiz-adv-x="1064" d="M18 0v41h13q43 -3 86 25q41 27 41 69v955q0 137 88 237q92 104 227 105q145 0 254 -66q127 -78 127 -213q0 -115 -76 -223.5t-184 -149.5q39 10 88 11q141 0 221 -111q72 -100 72 -248q0 -163 -111 -301q-117 -147 -274 -147q-147 0 -148 151q0 37 27 72q28 37 61 37 q84 0 84 -74q0 -18 -24 -43l-23 -25q0 -20 31 -34q27 -14 47 -15q117 0 154 129q16 57 16 224q0 315 -303 315q-20 0 -70 -4l7 63q254 78 253 348q0 96 -47 160q-53 68 -149 68q-121 0 -158 -113q-18 -53 -18 -211v-1032h-312z" />
<glyph unicode="&#xe0;" horiz-adv-x="966" d="M84 184q0 104 84 172q51 41 174 93l225 92v149q0 78 -55 133q-53 53 -137 54q-127 0 -127 -136q0 -2 4 -22.5t4 -24.5q0 -39 -55 -65q-53 -27 -90 -27q-18 0 -19 29q0 131 113 219q102 78 239 78q139 0 203 -51q72 -55 72 -191v-516q0 -84 57 -84q39 0 133 55l2 -41 q-90 -66 -100 -75q-63 -39 -121 -39q-88 0 -119 131l-133 -97q-66 -37 -151 -36q-84 0 -143.5 59t-59.5 141zM227 201q0 -57 37 -90q39 -35 94 -35q61 0 115 33q29 18 96 73l-2 301l-202 -90q-138 -61 -138 -192zM138 1382l174 60l153 -402l-24 -28z" />
<glyph unicode="&#xe1;" horiz-adv-x="966" d="M84 184q0 104 84 172q51 41 174 93l225 92v149q0 78 -55 133q-53 53 -137 54q-127 0 -127 -136q0 -2 4 -22.5t4 -24.5q0 -39 -55 -65q-53 -27 -90 -27q-18 0 -19 29q0 131 113 219q102 78 239 78q139 0 203 -51q72 -55 72 -191v-516q0 -84 57 -84q39 0 133 55l2 -41 q-90 -66 -100 -75q-63 -39 -121 -39q-88 0 -119 131l-133 -97q-66 -37 -151 -36q-84 0 -143.5 59t-59.5 141zM227 201q0 -57 37 -90q39 -35 94 -35q61 0 115 33q29 18 96 73l-2 301l-202 -90q-138 -61 -138 -192zM336 1040l153 402l174 -60l-305 -370z" />
<glyph unicode="&#xe2;" horiz-adv-x="962" d="M84 184q0 104 84 172q51 41 174 93l225 92v149q0 78 -55 133q-53 53 -137 54q-127 0 -127 -136q0 -2 4 -22.5t4 -24.5q0 -39 -55 -65q-53 -27 -90 -27q-18 0 -19 29q0 131 113 219q102 78 239 78q139 0 203 -51q72 -55 72 -191v-516q0 -84 57 -84q39 0 133 55l2 -41 q-90 -66 -100 -75q-63 -39 -121 -39q-88 0 -119 131l-133 -97q-66 -37 -151 -36q-84 0 -143.5 59t-59.5 141zM227 201q0 -57 37 -90q39 -35 94 -35q61 0 115 33q29 18 96 73l-2 301l-202 -90q-138 -61 -138 -192zM135 1069l235 338l70 -12l244 -320l-47 -10l-254 195 l-207 -207z" />
<glyph unicode="&#xe3;" horiz-adv-x="968" d="M84 184q0 104 84 172q51 41 174 93l225 92v149q0 78 -55 133q-53 53 -137 54q-127 0 -127 -136q0 -2 4 -22.5t4 -24.5q0 -39 -55 -65q-53 -27 -90 -27q-18 0 -19 29q0 131 113 219q102 78 239 78q139 0 203 -51q72 -55 72 -191v-516q0 -84 57 -84q39 0 133 55l2 -41 q-90 -66 -100 -75q-63 -39 -121 -39q-88 0 -119 131l-133 -97q-66 -37 -151 -36q-84 0 -143.5 59t-59.5 141zM227 201q0 -57 37 -90q39 -35 94 -35q61 0 115 33q29 18 96 73l-2 301l-202 -90q-138 -61 -138 -192zM125 1190q37 219 159 219q88 0 176.5 -69.5t126.5 -69.5 q84 0 107 133l41 -23q-37 -217 -160 -217q-88 0 -176 70q-86 68 -127 67q-84 0 -106 -133z" />
<glyph unicode="&#xe4;" horiz-adv-x="976" d="M84 184q0 104 84 172q51 41 174 93l225 92v149q0 78 -55 133q-53 53 -137 54q-127 0 -127 -136q0 -2 4 -22.5t4 -24.5q0 -39 -55 -65q-53 -27 -90 -27q-18 0 -19 29q0 131 113 219q102 78 239 78q139 0 203 -51q72 -55 72 -191v-516q0 -84 57 -84q39 0 133 55l2 -41 q-90 -66 -100 -75q-63 -39 -121 -39q-88 0 -119 131l-133 -97q-66 -37 -151 -36q-84 0 -143.5 59t-59.5 141zM227 201q0 -57 37 -90q39 -35 94 -35q61 0 115 33q29 18 96 73l-2 301l-202 -90q-138 -61 -138 -192zM154 1280q0 45 28.5 73.5t73.5 28.5t74 -28q31 -31 31 -74 t-31 -73.5t-74 -30.5t-73 30q-29 29 -29 74zM502 1280q0 43 31 74q29 29 72 28q45 0 73 -28q31 -31 31 -74t-30.5 -73.5t-73.5 -30.5q-41 0 -72 30.5t-31 73.5z" />
<glyph unicode="&#xe5;" horiz-adv-x="976" d="M84 184q0 104 84 172q51 41 174 93l225 92v149q0 78 -55 133q-53 53 -137 54q-127 0 -127 -136q0 -2 4 -22.5t4 -24.5q0 -39 -55 -65q-53 -27 -90 -27q-18 0 -19 29q0 131 113 219q102 78 239 78q139 0 203 -51q72 -55 72 -191v-516q0 -84 57 -84q39 0 133 55l2 -41 q-90 -66 -100 -75q-63 -39 -121 -39q-88 0 -119 131l-133 -97q-66 -37 -151 -36q-84 0 -143.5 59t-59.5 141zM227 201q0 -57 37 -90q39 -35 94 -35q61 0 115 33q29 18 96 73l-2 301l-202 -90q-138 -61 -138 -192zM605 1251q0 -80 -60 -139q-57 -57 -137 -57q-84 0 -141.5 57 t-57.5 139q0 84 57.5 141.5t141.5 57.5q80 0 137 -57q60 -60 60 -142zM533 1251.5q0 53.5 -37 90t-88 36.5q-53 0 -90 -36.5t-37 -90t37 -90.5t90 -37q51 0 88 37t37 90.5z" />
<glyph unicode="&#xe6;" horiz-adv-x="1368" d="M51 184q0 104 82 172q47 39 176 93l228 92v149q0 76 -58 133q-53 53 -137 54q-127 0 -127 -136q0 -2 4 -22.5t4 -24.5q0 -35 -55 -65q-53 -27 -90 -27q-18 0 -19 21q0 139 111 225q100 80 242 80q101 0 147 -25q55 -29 103 -115q135 147 311 148q150 0 244 -98 q92 -96 92 -250h-621q-4 -57 -4 -86q0 -145 86 -273q94 -141 236 -141q180 0 274 168h8q23 0 33 -10q-121 -264 -379 -264q-221 0 -324 163q-219 -162 -364 -161q-84 0 -143.5 59t-59.5 141zM195 201q0 -57 36 -90q39 -35 95 -35q117 0 264 119q-49 125 -51 141 q-4 39 -2 147l-203 -90q-139 -61 -139 -192zM711 643h452q-3 101 -67 166q-66 66 -164 65q-84 0 -148 -75q-50 -60 -73 -156z" />
<glyph unicode="&#xe7;" horiz-adv-x="907" d="M10 430q0 217 152 363q150 141 370 141q61 0 154 -41q102 -47 102 -98q0 -94 -90 -95q-55 0 -73 45q-23 57 -31 84q-33 45 -127 45q-150 0 -236 -137q-72 -119 -71 -276q0 -135 94 -250q102 -123 229 -123q188 0 287 168q41 0 41 -10q-123 -264 -393 -264 q-172 0 -293 139q-115 133 -115 309zM240 -336q45 -14 125 -14q53 0 98 26q55 33 56 84q0 76 -101 76q-41 0 -67 -8l123 195h55l-58 -103q70 -10 111 -43q53 -43 53 -102q0 -80 -90 -129q-76 -41 -162 -41t-143 30v29z" />
<glyph unicode="&#xe8;" horiz-adv-x="847" d="M14 451q0 199 115 337q123 147 320 148q154 0 253 -96q98 -95 99 -252h-647q-4 -29 -4 -86q0 -152 90 -275q102 -139 243 -139q188 0 287 168h8q23 0 33 -10q-123 -264 -393 -264q-170 0 -291 151q-113 144 -113 318zM176 643h471q-4 102 -72 168q-66 63 -169 63 q-86 0 -150 -73q-57 -64 -80 -158zM189 1382l174 60l153 -402l-24 -28z" />
<glyph unicode="&#xe9;" horiz-adv-x="851" d="M14 451q0 199 115 337q123 147 320 148q154 0 253 -96q98 -95 99 -252h-647q-4 -29 -4 -86q0 -152 90 -275q102 -139 243 -139q188 0 287 168h8q23 0 33 -10q-123 -264 -393 -264q-170 0 -291 151q-113 144 -113 318zM176 643h471q-4 102 -72 168q-66 63 -169 63 q-86 0 -150 -73q-57 -64 -80 -158zM348 1040l153 402l174 -60l-305 -370z" />
<glyph unicode="&#xea;" horiz-adv-x="851" d="M14 451q0 199 115 337q123 147 320 148q154 0 253 -96q98 -95 99 -252h-647q-4 -29 -4 -86q0 -152 90 -275q102 -139 243 -139q188 0 287 168h8q23 0 33 -10q-123 -264 -393 -264q-170 0 -291 151q-113 144 -113 318zM176 643h471q-4 102 -72 168q-66 63 -169 63 q-86 0 -150 -73q-57 -64 -80 -158zM172 1069l235 338l70 -12l244 -320l-47 -10l-254 195l-207 -207z" />
<glyph unicode="&#xeb;" horiz-adv-x="847" d="M14 451q0 199 115 337q123 147 320 148q154 0 253 -96q98 -95 99 -252h-647q-4 -29 -4 -86q0 -152 90 -275q102 -139 243 -139q188 0 287 168h8q23 0 33 -10q-123 -264 -393 -264q-170 0 -291 151q-113 144 -113 318zM176 643h471q-4 102 -72 168q-66 63 -169 63 q-86 0 -150 -73q-57 -64 -80 -158zM160 1280q0 45 28.5 73.5t73.5 28.5t74 -28q31 -31 31 -74t-31 -73.5t-74 -30.5t-73 30q-29 29 -29 74zM508 1280q0 43 31 74q29 29 72 28q45 0 73 -28q31 -31 31 -74t-30.5 -73.5t-73.5 -30.5q-41 0 -72 30.5t-31 73.5z" />
<glyph unicode="&#xec;" horiz-adv-x="548" d="M502 0h-459l-4 8l6 31q72 0 100 20q37 25 37 97v596q0 74 -71 73q-23 0 -64 -10l-24 41q190 53 284 113l37 -27v-790q0 -98 154 -107zM68 1382l174 60l153 -402l-24 -28z" />
<glyph unicode="&#xed;" horiz-adv-x="638" d="M502 0h-459l-4 8l6 31q72 0 100 20q37 25 37 97v596q0 74 -71 73q-23 0 -64 -10l-24 41q190 53 284 113l37 -27v-790q0 -98 154 -107zM129 1040l153 402l174 -60l-305 -370z" />
<glyph unicode="&#xee;" horiz-adv-x="641" d="M502 0h-459l-4 8l6 31q72 0 100 20q37 25 37 97v596q0 74 -71 73q-23 0 -64 -10l-24 41q190 53 284 113l37 -27v-790q0 -98 154 -107zM-10 1069l235 338l70 -12l244 -320l-47 -10l-254 195l-207 -207z" />
<glyph unicode="&#xef;" horiz-adv-x="641" d="M502 0h-459l-4 8l6 31q72 0 100 20q37 25 37 97v596q0 74 -71 73q-23 0 -64 -10l-24 41q190 53 284 113l37 -27v-790q0 -98 154 -107zM-12 1280q0 45 28.5 73.5t73.5 28.5t74 -28q31 -31 31 -74t-31 -73.5t-74 -30.5t-73 30q-29 29 -29 74zM336 1280q0 43 31 74 q29 29 72 28q45 0 73 -28q31 -31 31 -74t-30.5 -73.5t-73.5 -30.5q-41 0 -72 30.5t-31 73.5z" />
<glyph unicode="&#xf0;" horiz-adv-x="1081" d="M10 442q0 217 125 349q129 137 342 137q102 0 187 -33q-68 147 -193 279l-256 -136l-33 58l242 125q-78 76 -182 149l30 51q125 -55 244 -151l242 125l37 -52l-226 -118q168 -150 271 -346q109 -209 108 -422q0 -209 -131 -338q-135 -131 -342 -131q-186 0 -325.5 133 t-139.5 321zM188 485q0 -162 80 -290q92 -152 244 -152q256 0 256 326q0 197 -61 329q-83 178 -258 179q-156 0 -218 -125q-43 -89 -43 -267z" />
<glyph unicode="&#xf1;" horiz-adv-x="1146" d="M4 831v25q51 6 143 47q90 39 123 66l37 -27v-180q293 186 408 186q106 0 168 -98q51 -82 51 -199v-520q0 -82 158 -82l6 -49h-453v45q139 0 139 135v455q0 88 -36 149q-43 74 -125 74q-127 0 -316 -135v-571q0 -98 154 -107l-6 -45h-432l-5 8l7 31q63 0 102 51 q37 46 37 111v551q0 37 -64 57q-20 6 -96 22zM228 1190q37 219 159 219q88 0 176.5 -69.5t126.5 -69.5q84 0 107 133l41 -23q-37 -217 -160 -217q-88 0 -176 70q-86 68 -127 67q-84 0 -106 -133z" />
<glyph unicode="&#xf2;" d="M10 442q0 213 127 351q125 135 340 135q207 0 338 -133q133 -137 133 -338q0 -209 -131 -338q-135 -131 -342 -131q-186 0 -325.5 133t-139.5 321zM188 485q0 -162 80 -290q92 -152 244 -152q256 0 256 326q0 197 -61 329q-83 178 -258 179q-156 0 -218 -125 q-43 -89 -43 -267zM248 1382l174 60l153 -402l-24 -28z" />
<glyph unicode="&#xf3;" horiz-adv-x="991" d="M10 442q0 213 127 351q125 135 340 135q207 0 338 -133q133 -137 133 -338q0 -209 -131 -338q-135 -131 -342 -131q-186 0 -325.5 133t-139.5 321zM188 485q0 -162 80 -290q92 -152 244 -152q256 0 256 326q0 197 -61 329q-83 178 -258 179q-156 0 -218 -125 q-43 -89 -43 -267zM355 1040l153 402l174 -60l-305 -370z" />
<glyph unicode="&#xf4;" d="M10 442q0 213 127 351q125 135 340 135q207 0 338 -133q133 -137 133 -338q0 -209 -131 -338q-135 -131 -342 -131q-186 0 -325.5 133t-139.5 321zM188 485q0 -162 80 -290q92 -152 244 -152q256 0 256 326q0 197 -61 329q-83 178 -258 179q-156 0 -218 -125 q-43 -89 -43 -267zM219 1069l235 338l70 -12l244 -320l-47 -10l-254 195l-207 -207z" />
<glyph unicode="&#xf5;" d="M10 442q0 213 127 351q125 135 340 135q207 0 338 -133q133 -137 133 -338q0 -209 -131 -338q-135 -131 -342 -131q-186 0 -325.5 133t-139.5 321zM188 485q0 -162 80 -290q92 -152 244 -152q256 0 256 326q0 197 -61 329q-83 178 -258 179q-156 0 -218 -125 q-43 -89 -43 -267zM197 1190q37 219 159 219q88 0 176.5 -69.5t126.5 -69.5q84 0 107 133l41 -23q-37 -217 -160 -217q-88 0 -176 70q-86 68 -127 67q-84 0 -106 -133z" />
<glyph unicode="&#xf6;" d="M10 442q0 213 127 351q125 135 340 135q207 0 338 -133q133 -137 133 -338q0 -209 -131 -338q-135 -131 -342 -131q-186 0 -325.5 133t-139.5 321zM188 485q0 -162 80 -290q92 -152 244 -152q256 0 256 326q0 197 -61 329q-83 178 -258 179q-156 0 -218 -125 q-43 -89 -43 -267zM190 1280q0 45 28.5 73.5t73.5 28.5t74 -28q31 -31 31 -74t-31 -73.5t-74 -30.5t-73 30q-29 29 -29 74zM538 1280q0 43 31 74q29 29 72 28q45 0 73 -28q31 -31 31 -74t-30.5 -73.5t-73.5 -30.5q-41 0 -72 30.5t-31 73.5z" />
<glyph unicode="&#xf7;" horiz-adv-x="884" d="M0 692v82h840v-82h-840zM319 444q0 39 29 68q27 27 68 27q39 0 65 -27q29 -29 29 -67.5t-29 -67.5q-27 -27 -65 -27q-41 0 -68 27q-29 28 -29 67zM319 1028q0 39 29 68q27 27 68 26q39 0 65 -26q29 -29 29 -68q0 -37 -28.5 -65.5t-65.5 -28.5q-39 0 -68 28.5t-29 65.5z " />
<glyph unicode="&#xf8;" horiz-adv-x="1073" d="M10 442q0 217 125 349q129 137 342 137q156 0 271 -78l110 137l68 -18l-127 -160q150 -135 149 -352q0 -209 -131 -338q-135 -131 -342 -131q-143 0 -262 82l-117 -146l-67 25l131 164q-150 136 -150 329zM188 485q0 -141 62 -260l424 531q-84 121 -225 121 q-156 0 -218 -125q-43 -89 -43 -267zM289 166q88 -123 223 -123q256 0 256 326q0 199 -59 325z" />
<glyph unicode="&#xf9;" horiz-adv-x="1130" d="M-6 901l299 53v-651q0 -86 53 -145q55 -63 141 -64q84 0 281 142v550q0 74 -193 86v33l336 62v-781q0 -76 84 -75q23 0 78 12l-2 -41l-303 -86v180q-186 -186 -405.5 -186t-219.5 297v442q0 63 -41 96q-45 35 -104 35zM215 1382l174 60l153 -402l-24 -28z" />
<glyph unicode="&#xfa;" horiz-adv-x="1130" d="M-6 901l299 53v-651q0 -86 53 -145q55 -63 141 -64q84 0 281 142v550q0 74 -193 86v33l336 62v-781q0 -76 84 -75q23 0 78 12l-2 -41l-303 -86v180q-186 -186 -405.5 -186t-219.5 297v442q0 63 -41 96q-45 35 -104 35zM465 1040l153 402l174 -60l-305 -370z" />
<glyph unicode="&#xfb;" horiz-adv-x="1142" d="M-6 901l299 53v-651q0 -86 53 -145q55 -63 141 -64q84 0 281 142v550q0 74 -193 86v33l336 62v-781q0 -76 84 -75q23 0 78 12l-2 -41l-303 -86v180q-186 -186 -405.5 -186t-219.5 297v442q0 63 -41 96q-45 35 -104 35zM264 1069l235 338l70 -12l244 -320l-47 -10 l-254 195l-207 -207z" />
<glyph unicode="&#xfc;" horiz-adv-x="1132" d="M-6 901l299 53v-651q0 -86 53 -145q55 -63 141 -64q84 0 281 142v550q0 74 -193 86v33l336 62v-781q0 -76 84 -75q23 0 78 12l-2 -41l-303 -86v180q-186 -186 -405.5 -186t-219.5 297v442q0 63 -41 96q-45 35 -104 35zM223 1280q0 45 28.5 73.5t73.5 28.5t74 -28 q31 -31 31 -74t-31 -73.5t-74 -30.5t-73 30q-29 29 -29 74zM571 1280q0 43 31 74q29 29 72 28q45 0 73 -28q31 -31 31 -74t-30.5 -73.5t-73.5 -30.5q-41 0 -72 30.5t-31 73.5z" />
<glyph unicode="&#xfd;" horiz-adv-x="1048" d="M14 918h451l-6 -41q-121 0 -121 -70q0 -23 272 -612l129 317q106 262 107 283q0 86 -121 86h-8v37h366l2 -33q-111 0 -190 -152q-25 -47 -123 -291q-92 -246 -319 -802q-68 -152 -160 -152q-125 0 -125 63q0 96 137 130q86 22 148 129q18 31 79 190l-342 733 q-35 72 -63 98q-37 31 -107 50zM494 1040l153 402l174 -60l-305 -370z" />
<glyph unicode="&#xfe;" horiz-adv-x="1069" d="M-12 -455l8 15q168 6 168 98v1542q0 78 -31 103q-20 14 -110 20l-11 49q57 8 138 49q80 39 122 76l35 -10v-676q168 123 367 123q145 0 244 -137q86 -126 86 -277q0 -200 -148 -362q-152 -170 -346 -170q-106 0 -203 57v-326q0 -141 213 -155l-2 -49h-518zM307 195 q125 -125 285 -125q49 0 113 45q49 37 88 88q72 106 71 258q0 144 -73 258q-86 129 -223.5 129t-260.5 -117v-536z" />
<glyph unicode="&#xff;" horiz-adv-x="1024" d="M14 918h451l-6 -41q-121 0 -121 -70q0 -23 272 -612l129 317q106 262 107 283q0 86 -121 86h-8v37h366l2 -33q-111 0 -190 -152q-25 -47 -123 -291q-92 -246 -319 -802q-68 -152 -160 -152q-125 0 -125 63q0 96 137 130q86 22 148 129q18 31 79 190l-342 733 q-35 72 -63 98q-37 31 -107 50zM250 1280q0 45 28.5 73.5t73.5 28.5t74 -28q31 -31 31 -74t-31 -73.5t-74 -30.5t-73 30q-29 29 -29 74zM598 1280q0 43 31 74q29 29 72 28q45 0 73 -28q31 -31 31 -74t-30.5 -73.5t-73.5 -30.5q-41 0 -72 30.5t-31 73.5z" />
<glyph unicode="&#x131;" horiz-adv-x="641" d="M502 0h-459l-4 8l6 31q72 0 100 20q37 25 37 97v596q0 74 -71 73q-23 0 -64 -10l-24 41q190 53 284 113l37 -27v-790q0 -98 154 -107z" />
<glyph unicode="&#x152;" horiz-adv-x="1763" d="M47 676q0 301 158 512q174 229 471 229h905l8 -307h-30q-23 233 -125 233h-410v-565h326q78 0 100 176h29v-432h-29q-27 186 -100 187h-326v-519q0 -111 72 -110h356q127 0 166 260l35 -4l-35 -336h-946q-287 0 -459 197q-166 188 -166 479zM229 737q0 -252 107 -444 q131 -236 360 -236q68 0 142 25q33 31 32 90v1077q0 49 -12 76q-41 25 -94 27h1h-1h-1h-1h-2h-1h-1h-2h-2h-2h-2h-2h-3h-1h-3h-1h-3h-1h-3h-1h-2h-3h-2h-1h-3h-2h-2h-1h-4h-1h-2h-2h-2h-3h-2h-2h-2h-2h-1h-2h-2h-2h-2h-4h-19q-233 0 -345 -203q-88 -158 -88 -412z" />
<glyph unicode="&#x153;" horiz-adv-x="1474" d="M10 442q0 209 105 340q113 145 315 146q221 0 342 -183q111 190 315 191q150 0 236 -102q82 -94 82 -246h-565q0 -27 -6.5 -72t-6.5 -70q0 -131 80 -237q86 -121 213 -121q170 0 256 168h8q20 0 31 -10q-111 -264 -354 -264q-178 0 -287 188q-121 -182 -348 -182 q-176 0 -299 141q-117 135 -117 313zM170 485q0 -156 68 -284q84 -158 223 -158q229 0 229 326q0 193 -51 321q-74 186 -236 187q-145 0 -198 -134q-35 -88 -35 -258zM844 643h424q-4 100 -62 164q-61 68 -155 67q-80 0 -140 -77q-49 -64 -67 -154z" />
<glyph unicode="&#x178;" horiz-adv-x="1251" d="M-20 1417h546l-8 -49q-190 -15 -190 -49q0 -12 389 -664l366 656q0 53 -174 63l-26 43h460l-4 -41q-90 -4 -116.5 -20.5t-69.5 -91.5l-387 -670v-387q0 -104 53 -141q41 -29 152 -29v-37h-584v37q211 0 211 170v340l-424 721q-33 57 -72 80q-31 16 -102 24zM461 1651 q0 45 28.5 73.5t73.5 28.5t74 -28q31 -31 31 -74t-31 -73.5t-74 -30.5t-73 30q-29 29 -29 74zM809 1651q0 43 31 74q29 29 72 28q45 0 73 -28q31 -31 31 -74t-30.5 -73.5t-73.5 -30.5q-41 0 -72 30.5t-31 73.5z" />
<glyph unicode="&#x2c6;" horiz-adv-x="598" d="M37 1069l235 338l70 -12l244 -320l-47 -10l-254 195l-207 -207z" />
<glyph unicode="&#x2da;" horiz-adv-x="665" d="M535 1249q0 -80 -60 -139q-57 -57 -137 -57q-84 0 -141.5 57t-57.5 139q0 84 57.5 141.5t141.5 57.5q80 0 137 -57q60 -60 60 -142zM463 1249.5q0 53.5 -37 90t-88 36.5q-53 0 -90 -36.5t-37 -90t37 -90.5t90 -37q51 0 88 37t37 90.5z" />
<glyph unicode="&#x2dc;" horiz-adv-x="708" d="M27 1190q37 219 159 219q88 0 176.5 -69.5t126.5 -69.5q84 0 107 133l41 -23q-37 -217 -160 -217q-88 0 -176 70q-86 68 -127 67q-84 0 -106 -133z" />
<glyph unicode="&#x2000;" horiz-adv-x="923" />
<glyph unicode="&#x2001;" horiz-adv-x="1847" />
<glyph unicode="&#x2002;" horiz-adv-x="923" />
<glyph unicode="&#x2003;" horiz-adv-x="1847" />
<glyph unicode="&#x2004;" horiz-adv-x="614" />
<glyph unicode="&#x2005;" horiz-adv-x="460" />
<glyph unicode="&#x2006;" horiz-adv-x="307" />
<glyph unicode="&#x2007;" horiz-adv-x="307" />
<glyph unicode="&#x2008;" horiz-adv-x="229" />
<glyph unicode="&#x2009;" horiz-adv-x="368" />
<glyph unicode="&#x200a;" horiz-adv-x="100" />
<glyph unicode="&#x2010;" horiz-adv-x="782" d="M68 573v125h645v-125h-645z" />
<glyph unicode="&#x2011;" horiz-adv-x="782" d="M68 573v125h645v-125h-645z" />
<glyph unicode="&#x2013;" horiz-adv-x="1009" d="M68 573v125h870v-125h-870z" />
<glyph unicode="&#x2014;" horiz-adv-x="1849" d="M68 573v125h1712v-125h-1712z" />
<glyph unicode="&#x2018;" horiz-adv-x="444" d="M14 1096q0 76 35 139q20 37 86 115q18 23 64 53q47 33 67 33q10 0 23 -35q-174 -92 -174 -238q0 -55 39 -55q4 0 32 4q14 2 33 2q43 0 67.5 -32.5t24.5 -75.5q0 -51 -43 -82q-39 -27 -94 -27q-80 0 -121 61q-39 58 -39 138z" />
<glyph unicode="&#x2019;" horiz-adv-x="477" d="M53 1323q0 51 45 84q39 27 92 27q76 0 121 -64q39 -57 39 -137t-33 -139q-25 -39 -86 -115q-16 -20 -63 -51q-51 -33 -70 -33q-8 0 -20 35q174 92 174 235q0 57 -39 58q-6 0 -34.5 -4.5t-33.5 -4.5q-39 0 -67 35q-25 31 -25 74z" />
<glyph unicode="&#x201a;" horiz-adv-x="460" d="M53 383q0 51 45 84q39 27 92 27q76 0 121 -64q39 -57 39 -137t-33 -139q-25 -39 -86 -115q-16 -20 -63 -51q-51 -33 -70 -33q-8 0 -20 35q174 92 174 235q0 57 -39 58q-6 0 -34.5 -4.5t-33.5 -4.5q-39 0 -67 35q-25 31 -25 74z" />
<glyph unicode="&#x201c;" horiz-adv-x="903" d="M14 1096q0 76 35 139q20 37 86 115q18 23 64 53q47 33 67 33q10 0 23 -35q-174 -92 -174 -238q0 -55 39 -55q4 0 32 4q14 2 33 2q43 0 67.5 -32.5t24.5 -75.5q0 -51 -43 -82q-39 -27 -94 -27q-80 0 -121 61q-39 58 -39 138zM475 1096q0 76 35 139q14 25 86 115 q18 23 61 51q53 35 70 35q10 0 23 -35q-176 -92 -177 -238q0 -55 41 -55q4 0 33 4q14 2 33 2q39 0 68 -35q25 -31 24 -73q0 -49 -45 -82q-39 -27 -90 -27q-80 0 -123 61q-39 58 -39 138z" />
<glyph unicode="&#x201d;" horiz-adv-x="915" d="M35 1317q0 51 45 84q39 27 90 26q80 0 123 -63q39 -57 39 -137q0 -76 -35 -140q-20 -37 -86 -114q-18 -23 -61 -51q-51 -33 -70 -33q-10 0 -23 35q176 92 176 235q0 57 -40 58q-4 0 -33 -4.5t-33 -4.5q-41 0 -66 33q-26 37 -26 76zM496 1317q0 53 43 84q39 27 94 26 q76 0 121 -63q39 -57 39 -137q0 -76 -35 -140q-25 -39 -86 -114q-16 -20 -64 -51q-51 -33 -67 -33q-10 0 -23 35q174 92 174 235q0 57 -39 58q-4 0 -32.5 -4.5t-32.5 -4.5q-43 0 -67.5 33t-24.5 76z" />
<glyph unicode="&#x201e;" horiz-adv-x="901" d="M35 381q0 51 45 84q39 27 90 26q80 0 123 -63q39 -57 39 -137q0 -76 -35 -140q-20 -37 -86 -114q-18 -23 -61 -51q-51 -33 -70 -33q-10 0 -23 35q176 92 176 235q0 57 -40 58q-4 0 -33 -4.5t-33 -4.5q-41 0 -66 33q-26 37 -26 76zM496 381q0 53 43 84q39 27 94 26 q76 0 121 -63q39 -57 39 -137q0 -76 -35 -140q-25 -39 -86 -114q-16 -20 -64 -51q-51 -33 -67 -33q-10 0 -23 35q174 92 174 235q0 57 -39 58q-4 0 -32.5 -4.5t-32.5 -4.5q-43 0 -67.5 33t-24.5 76z" />
<glyph unicode="&#x2022;" horiz-adv-x="749" d="M96 803q0 100 74 174q72 72 174 72q104 0 176 -72q74 -74 74 -174q0 -102 -74 -176q-72 -72 -176 -72q-102 0 -174 72q-74 74 -74 176z" />
<glyph unicode="&#x2026;" horiz-adv-x="1464" d="M94 96q0 49 33 82q35 35 82 35q45 0 80 -35t35 -82q0 -45 -35 -80q-33 -33 -80 -32q-49 0 -82 32.5t-33 79.5zM577 96q0 49 33 82q35 35 82 35q45 0 80 -35t35 -82q0 -45 -35 -80q-33 -33 -80 -32q-49 0 -82 32.5t-33 79.5zM1059 96q0 49 33 82q35 35 82 35q45 0 80 -35 t35 -82q0 -45 -35 -80q-33 -33 -80 -32q-49 0 -82 32.5t-33 79.5z" />
<glyph unicode="&#x202f;" horiz-adv-x="368" />
<glyph unicode="&#x2039;" horiz-adv-x="595" d="M59 653l390 484l30 -58l-231 -426l231 -426l-30 -55z" />
<glyph unicode="&#x203a;" horiz-adv-x="565" d="M96 227l234 426l-234 426l33 58l389 -484l-389 -481z" />
<glyph unicode="&#x205f;" horiz-adv-x="460" />
<glyph unicode="&#x20ac;" horiz-adv-x="1363" d="M-74 477v96h117q-4 53 -4 80q0 111 22 201h-135v94h166q84 215 260 342q184 133 424 133q211 0 375 -75q53 -25 70 -25q20 0 28 14l31 -2l14 -301h-37q-43 160 -180 252q-127 88 -301 88q-193 0 -332 -125q-129 -114 -184 -301h678v-94h-700q-10 -55 -10.5 -133 t14.5 -148h696v-96h-674q61 -193 197 -309q151 -129 350 -129q145 0 283 94q131 92 190 234l41 -13q-66 -193 -190 -315q-307 -49 -394 -49q-244 0 -432 133q-193 137 -250 354h-133z" />
<glyph unicode="&#x2122;" horiz-adv-x="1689" d="M12 1245l15 193h10q18 -23 47 -23h475q29 0 57 23h7l24 -187l-22 -4q-25 135 -66 135h-188v-577q0 -70 102 -68v-26h-299v20q104 -2 105 74v577h-187q-47 0 -65 -137h-15zM694 727q78 0 82 72l31 536q0 61 -84 62v22h168l250 -583l250 583h157v-22h-18h-19 q-25 0 -36 -9.5t-9 -29.5l41 -594q0 -14 39 -27q27 -8 51 -8v-18h-264v16q27 0 59.5 24.5t30.5 47.5l-39 495l-249 -583h-25l-262 602l-33 -531q0 -23 39 -41q29 -14 61 -14v-16h-221v16z" />
</font>
</defs>
</svg>
